<?xml version="1.0" encoding="utf-8"?><svg version="1.1" id="Layer_1" xmlns="http://www.w3.org/2000/svg" xmlns:xlink="http://www.w3.org/1999/xlink" x="0px" y="0px" viewBox="0 0 122.65 122.88" style="enable-background:new 0 0 122.65 122.88" xml:space="preserve"><g><path d="M35.84,113.9c-0.06-1.56-0.29-3.12-0.66-4.65c-1.49-6.03-5.27-11.54-9.93-15.54c-0.18-0.16-0.36-0.31-0.55-0.46l-4.2,4.1 c3.24,2.48,5.58,5.88,6.54,9.05c0.52,1.72,0.67,3.41,0.38,4.93c-0.33,1.74-1.19,3.23-2.66,4.31c-0.33,0.24-0.68,0.45-1.06,0.64 c1.88,0.93,3.65,1.51,5.18,1.63c1.54,0.13,2.89-0.15,4.03-0.84C34,116.41,34.97,115.36,35.84,113.9L35.84,113.9z M78.92,71.24 c-0.4-0.21-0.72-0.51-0.95-0.87l-0.79,0.78c0.29,0.19,0.54,0.44,0.73,0.74c4.08,6.44,6.43,12.99,6.65,19.67 c0.22,6.71-1.71,13.45-6.19,20.25c-0.75,1.14-2.27,1.45-3.41,0.7s-1.45-2.27-0.7-3.41c3.89-5.9,5.57-11.69,5.38-17.39 c-0.19-5.73-2.27-11.45-5.89-17.17l-6.27,6.18c-0.06-0.19-0.12-0.37-0.18-0.56l-0.48,0.47l-26.39,35.19 c-1.35,2.47-3.01,4.28-4.97,5.46c-2.07,1.24-4.39,1.75-6.95,1.54c-3.91-0.32-8.86-2.76-13.5-6.31c-0.15-0.09-0.3-0.2-0.42-0.33 c-1.6-1.25-3.15-2.62-4.61-4.08c-3.31-3.31-6.18-7.11-7.96-10.89c-1.92-4.07-2.61-8.18-1.35-11.83c0.81-2.34,2.39-4.42,4.91-6.08 l36.99-28.15l20.01-21.39L86.1,1.36c0.4-0.55,0.98-0.88,1.6-0.99c3.44-0.66,6.94-0.41,10.34,0.53c5.84,1.61,11.37,5.27,15.68,9.88 c4.32,4.62,7.46,10.24,8.53,15.74c0.58,2.98,0.55,5.94-0.22,8.72c-0.15,0.56-0.49,1.03-0.93,1.35l0,0.01L85.7,62.21l-1.42,1.39 c0,0.19-0.01,0.38-0.02,0.57l-2.85,2.81c5.22,2.73,9.45,6.16,12.54,10.41c3.16,4.35,5.11,9.5,5.66,15.56 c0.12,1.35-0.88,2.55-2.23,2.67c-1.35,0.12-2.55-0.88-2.67-2.23c-0.47-5.14-2.09-9.48-4.73-13.11 C87.31,76.63,83.58,73.64,78.92,71.24L78.92,71.24z M20.57,90.39c-3.36-1.94-6.88-3.05-10.14-3.03c-0.83,0.01-1.65,0.09-2.45,0.26 C6.59,88.6,5.73,89.75,5.29,91c-0.8,2.31-0.25,5.16,1.15,8.12c1.53,3.26,4.06,6.57,7,9.52c1.23,1.23,2.53,2.4,3.85,3.45 c2.27,0.38,3.74,0.16,4.55-0.44c0.39-0.29,0.63-0.72,0.73-1.24c0.14-0.74,0.05-1.63-0.25-2.59c-0.88-2.91-3.42-6.1-6.89-7.89 c-1.21-0.62-1.69-2.1-1.07-3.31c0.13-0.25,0.29-0.46,0.48-0.64L20.57,90.39L20.57,90.39z M65.02,75.5 c-3.92-6.44-11.06-13.32-17.98-17.96l-0.96,1.03c-0.12,0.15-0.27,0.29-0.43,0.42l-31.3,23.82c3.9,0.74,7.88,2.55,11.52,5.14 l0.09,0.07l0.01,0.01c0.84,0.6,1.66,1.25,2.46,1.93c5.39,4.62,9.77,11.03,11.51,18.1l0.03,0.12l22.92-30.56 c0.09-0.14,0.2-0.27,0.33-0.39L65.02,75.5L65.02,75.5z M64.12,39.29c8.91,4.41,16.34,11.56,19.05,18.66l34.3-24.82 c0.35-1.79,0.31-3.71-0.07-5.68c-0.89-4.58-3.58-9.34-7.29-13.31c-3.73-3.99-8.44-7.14-13.36-8.49c-2.4-0.66-4.84-0.89-7.25-0.57 L66.49,36.74l-0.01-0.01c-0.06,0.08-0.12,0.16-0.2,0.24L64.12,39.29L64.12,39.29z"/></g></svg>