<svg xmlns="http://www.w3.org/2000/svg" viewBox="0 0 2500 300"><defs><style>.minerva-base-style{}</style></defs><g transform="translate(0 0) scale(1.4285714285714286) translate(0 0)" style="fill: #006c66;"><title>minerva</title><path d="M105,0A105,105,0,1,0,210,105,105.1,105.1,0,0,0,105,0Zm0,207.1A102.1,102.1,0,1,1,207.1,105,102.2,102.2,0,0,1,105,207.1Z"/><path class="minerva-base-style" d="M166.6,97c-1.4-3.1-.5-5.1-.9-7.3s-2.7-7-4.3-10.8c-.7-1.7,3.8-1.3.4-7.6,0-.2,4.7-2,0-5.5a26.4,26.4,0,0,1-6-6.7,1,1,0,0,1,0-1.3c2.7-2.4,2.8-5.8-.1-7.5s-4.5,0-6.7,1.4c-.7.5-1.1.8-1.9.5L145.3,51c2.7-2.6,3.3-5.2,3.1-5.6s-4.6-1.3-10.2,1l-.4-.3c2.3-3.9,1-6.7.9-6.9h-.1A81,81,0,0,1,151,25.9h.1c.2-.3.3-.6-.2-.9l-1-.6A92.4,92.4,0,0,0,12.7,105c0,29.5,15,57.9,39.4,75.6a13.5,13.5,0,0,0,2.8,1.6A1.1,1.1,0,0,0,56,182l.3-.5a1,1,0,0,0,.3-.8c0-.7-.9-1.3-2.1-3a27.7,27.7,0,0,1-4.7-15.1,22.1,22.1,0,0,1,4.5-13.7c3.7,3.9,11.7,10.9,11.5,17.4s-6.9,6.8-5.4,12.2c.9,3.4,3.4,2,3.9,4.6.7,4.4,6.7,7.3,9.3,6.9.7-.1,1.2.4,2.4,1.7s6.2,1.6,8.2,1.2,4.1,1.4,8,.9,6.1-.9,8.2-.9,22.5-.3,36,1.8c2.4.4,3.1-.7,2.1-2.5-4.9-8.6-5.6-15.8-2.8-25,5,.4,12.2,1.7,21.6-4a11,11,0,0,0,5.1-9.5c-.1-2.1-1-4.7-.5-6.7s1.3-2.7,2.1-3.2c3.6-2.6,1-4.6.4-4.8a3.4,3.4,0,0,0,1.1-4.6c-.7-.7-2.7-6.2-.4-7.3s5.3-1.8,8.1-3.1a4.5,4.5,0,0,0,2.4-6C174.2,114.4,166.8,97.4,166.6,97ZM64.7,179.1c-.7.2-2.9.3-2.4-2.7s2.3-2.6,3.3-1.6S64.9,177.6,64.7,179.1Zm87-125.9c1.2-.8,2.5-1.1,3.3-.4,2.6,2.6-2.9,4.1-1.8,6.1a30.7,30.7,0,0,0,7.5,8.4c1.2,1,1.4,3.1-3.3,4.1s-23.6,5.9-33.6,16.5c-12.5,13.2-20.4,30.3-21.5,28s-3.6-2.8-3.2-3.5C117,81.6,145.1,57.3,151.7,53.2Zm8.2,21.7c-1,2.9-9.1,5.5-8.7,3.5s0-2.2.6-2.3,3.5-1.1,7.5-2.1C159.7,73.9,160.2,74.1,159.9,74.9Zm-20.6,5.3c-.2-1.2,8.5-4.1,8.8-3.3s-1.8,6-4.7,7-4.7.9-4.6.4A11,11,0,0,0,139.3,80.2ZM119,125.8c-4,2.5-6.2-2.2-6.8-3.1a3.7,3.7,0,0,1-.5-3.1c.3-1.4.5-3.3-.4-9.3-.4-2.7,5-9.2,6.3-10.4s3.1.6,3.2,2.6c.3,3.6-1.8,5.6-3.9,7.2s-3.1,4.4-2.6,5.1a1.5,1.5,0,0,0,1.9-.9c1.5-3.3,6-4.9,6.7-6.7s.3-4.4.2-5.6.9-1.2,1.6-1.1,1.4,1.4,1.8,2.7c2.9,7.5-4.3,12-5.5,13.8S122.1,123.9,119,125.8Zm6.1-29.1c-2.2,1.5-5.3-.5-4.7-1.4a43.7,43.7,0,0,1,11.5-11c3.4-2.1,3.8-2.3,4-1.1a10.6,10.6,0,0,1-2.6,7.5c-2.3,2.5-4.6,2.3-5.8,2.6S126.7,95.6,125.1,96.7Zm-19.3,25.6c-1-.2-1.4-2.1-1.2-2.9s3.1-5.2,4-6.4a.5.5,0,0,1,.8.3C110,117.4,109.4,123.1,105.8,122.3ZM138,48.2a17.7,17.7,0,0,1,7.5-1.6c.8.1-1.9,4.8-6.6,6.8s-8.5,2.5-8.9,2.3S134.1,49.9,138,48.2ZM54.7,126.5c-1.5-1.7-2.8-2.6-2.9-2.5a22.4,22.4,0,0,0-3.6,8.9A65.4,65.4,0,0,1,40.7,105C39.3,69.6,69,41.1,105.2,41.2a56.8,56.8,0,0,1,22.4,4.6,31.3,31.3,0,0,0-3.7,6.6c0-1.9-.5-3.4-.4-4.6s-5.1.9-9.7,8.3a19.9,19.9,0,0,0-2.2,5.3c-.1-2.8-.7-4.9-.9-4.9a16.1,16.1,0,0,0-8.5,8.8,22.4,22.4,0,0,0-1.1,3.4c-.2-1.9-.7-3.2-.9-3.2s-5.9,2.3-8.6,8.9A15.4,15.4,0,0,0,90.5,79c-.5-2.3-1.4-3.7-1.7-3.4-1.9,2.4-5.7,3.5-7.6,9.6a13.2,13.2,0,0,0-.7,4.2c-.8-2-2-3.2-2.3-3.2s-6.1,5.5-7,10.9a15.8,15.8,0,0,0,.2,5.8c-1.1-1.8-2.5-3-3.1-4.8-.9.5-5.7,5-5.8,10.7a19.7,19.7,0,0,0,.7,6.1c-1.6-2.9-3.8-4.2-4.1-4.1s-4,4.1-4.8,11.1A11.8,11.8,0,0,0,54.7,126.5Zm74.1-79.7c2.8-3.4,7.6-6.1,8.2-5.8s-.8,5.6-3.9,8.6-8.1,6.2-8.6,6.1S126.2,49.8,128.8,46.8Zm-9.3,13a21,21,0,0,0-5.6,6.4c-.5.9-1.9-5,1.7-10.6,2.2-3.5,6.6-6.6,6.5-6.2S124.2,56,119.5,59.8Zm-10.1,7.5c-3.4,5.1-3.6,3.3-7.3,8.3-.2.2-.2-6.5,1.1-9.4,2.1-4.7,5.7-7.4,6.2-7.5S111.3,64.5,109.4,67.3ZM98.3,77.4c-1.7,3-3.3,2.3-6.2,6.7-.3.4-1.1-3.6.7-9.1a12.6,12.6,0,0,1,5.9-6.9C99.3,68,100.4,73.8,98.3,77.4ZM88,88.1c-1.8,3.9-2.9,4-5,6.4-.3.4-1.8-3.7-.4-8.8s4-5.6,5.3-7S89.9,84,88,88.1Zm-8.4,6.6a10.3,10.3,0,0,1-.4,3c-1.3,4.3-3.9,6.2-5.3,8.1a15.7,15.7,0,0,1-1.6-5.8,15.2,15.2,0,0,1,5.2-11.2C78.3,88.8,79.6,92,79.6,94.7Zm-8.5,12.8A14.9,14.9,0,0,1,66,118.3a17.7,17.7,0,0,1-2.2-7.6c-.2-6.3,2.4-8.5,3.6-9.7C67.9,102.8,71.1,104.2,71.1,107.5ZM59,113.8c1.8.9,3.9,3.4,4.1,8.2s-3.2,8.7-4.6,9.4c-.9-3.7-2.6-4.4-2.6-8A18,18,0,0,1,59,113.8Zm7.3,12.5c4.6-2,9.6-1.7,9.8-1.5s-1.5,5.9-5.9,8.2-9.5,2.7-10,2.1S61.7,128.3,66.3,126.3Zm-.4-3.4c.3-1.5,3-6.5,7.1-8.3h0a18.4,18.4,0,0,1,9.4-1.5c.5.2-1.7,5.6-5.8,7.6S70.1,121.6,65.9,122.9Zm6.9-11.8c.2-.4,3.5-6.4,7.4-8.2a17.5,17.5,0,0,1,8.9-1.4c.3.1-1.8,5.4-6.2,7.6S72.6,111.6,72.8,111.1Zm8.9-11.9c-.3-.2,4.4-6.4,8.4-8.3a15.6,15.6,0,0,1,8.4-1c.3.3-1.9,5.5-6.5,7.5A24.2,24.2,0,0,1,81.7,99.2ZM92.4,87.4c-.2-.2,3.4-6.3,7.4-7.9s7.7-.1,8.9,0-1.3,4.5-6.6,6.4S93.1,87.7,92.4,87.4Zm12-11.4c.1-.3,4.1-5.9,8.1-7.3a16.4,16.4,0,0,1,9.2-.2c.5.2-2.8,5-7.7,6.5S104.3,76.3,104.4,76Zm12.1-9.9c-.5-.3,4.3-5.7,8.2-7.2a18,18,0,0,1,8.3-1c.3.2-2.5,4.9-7.1,6.7S117.1,66.5,116.5,66.1ZM50.2,175.3C28.6,158.1,15.6,132.1,15.6,105A89.3,89.3,0,0,1,146.4,25.8a.4.4,0,0,1,.1.7,97.3,97.3,0,0,0-10.2,11.4,73.1,73.1,0,0,0-31.3-7A74.3,74.3,0,0,0,30.9,105a72.1,72.1,0,0,0,17.9,48.2,23.1,23.1,0,0,0-1.9,9.4A25.6,25.6,0,0,0,50.2,175.3Zm.2-24.8h-.1A69.2,69.2,0,0,1,33.9,105,71.2,71.2,0,0,1,105,33.9a70.1,70.1,0,0,1,29.6,6.4,22.6,22.6,0,0,0-4.1,2.6A63.1,63.1,0,0,0,105,37.8,67.3,67.3,0,0,0,37.8,105c0,16.1,5,30.2,14.8,42C52.1,147.9,51.3,149.1,50.4,150.5Zm3.5-5.6c-1.3-1.2-4.1-4.3-4.4-8.3V136c0-4.3,1.9-8.6,2.4-9s5.3,3.3,5.4,8.7A14.4,14.4,0,0,1,53.9,144.9Zm8-7.2c3.9-1.8,9.6-1.4,9.3-1.1s-1.8,5.8-6.2,8a12.1,12.1,0,0,1-8.7,1.3C58.6,143.3,58.1,139.5,61.9,137.7Zm5.2,46.5c-.6-2.7-.4-6.3.5-7.3s4.9-1.2,5-.1-1.1,5.4.3,10.2C72.6,187.7,68.3,187.4,67.1,184.2Zm.3-11.1c-.3-2,1.6-3.9,1.6-8.2s-6.6-12.6-11.1-17.3a19.5,19.5,0,0,0,7.9-1.9c6.6-3.1,7.9-10.1,8.1-10.4a11,11,0,0,0-3.8-.4l.8-.4c6.4-3.5,8.1-11,7.8-11.1a17,17,0,0,0-4-.3l2-.7c6.8-2.7,8.7-10.3,8.5-10.6a16.1,16.1,0,0,0-3.5-.4l1.9-.8c6.2-3.1,8.4-10.1,8.1-10.3a10.5,10.5,0,0,0-3.3-.4,23.7,23.7,0,0,0,4.5-1.5c6.7-2.9,8.9-9.3,8.6-9.6a10.9,10.9,0,0,0-3-.5,34.5,34.5,0,0,0,4.4-1.3c6.6-2.2,9.2-8.5,8.8-8.6l-3.7-.8a24.5,24.5,0,0,0,6.6-1.3c7.1-2.4,9.6-6.7,9.8-8.6a6,6,0,0,0-2.3-.8,29.3,29.3,0,0,0,4.7-1.2c6.6-2.7,9.4-9.3,9.6-9.8a29.3,29.3,0,0,0,3.9-1.6l1.9-.9,1.6,1.1c1,.6,1.4.8.9,1.2C122,75,105,99.5,97.6,111.3c-.2.4-.6.3-1.3.3-7.9-.6-12.4,8.9-8.9,17.8-.4,1.8-4.2,5.3-4.5,5.5s-1,1.4.3,1.3,4.2-3.2,5.4-4.5c.4.6,2.2,2,1.3,2.8A63.6,63.6,0,0,1,76,145c-2.6,1.2,4.2,2.1,15.7-8.3.7-.6,1.5,2.4,2.5,3.7-2,6.5,2.9,19.1,2.1,23a2.8,2.8,0,0,1-2.8,2.7c-11.4.3-12.5-.3-18.3,1.4-2.7.8-2,2.6-.1,2.1s4.6-1.5,16.9-.7c3.1.1,6.5-.6,6.5-5.7s-3.6-18.4-2.4-20.3a6.9,6.9,0,0,0,3.5,1.4c-.2,4.5,7,19,3.8,27-1.2,3-6.4,2.7-15.4,1.8C72.7,171.6,67.7,174.9,67.4,173.1Zm35.1,9.9c-5.9,2-8.3-4.9-7.3-6.4s4.4,1,7.3-.9S106,181.8,102.5,183Zm-27,4.3c-.8-3.7-1.1-10,.4-11.5s4.9-.9,4.8.2c-.3,4.3-2.1,9.2,1.2,14.1C83.2,192,76.7,192.3,75.5,187.3Zm11.4,4.2c-1.6-.4-6-7.4-2.4-15.8.3-.8,5.8-.3,6.8,0s-.8,6.8,6.8,9.8C98.8,185.8,98,194.3,86.9,191.5Zm47.2-23.3c-2.5,8.8-3.8,12.3,0,21.9.5,1.3.9,2.3-.2,2.1-7.7-1.4-9.4-2.6-33.7-.6-1.7.2.6-3.4.3-5.8,2.2-.3,5.8-1.3,6.5-4.9s-2.1-7.6-1.8-8.2c3.5-6.7-.2-14.1-3.1-26.6-.3-1.2.4-1.7.9-1.1,15.6,16.9,25.5,20.2,30.9,21.8C134.4,167,134.3,167.6,134.1,168.2ZM174,122.1c-3.3,2.9-8.3,3.1-10.3,4.9s-1.5,2.5-.4,5.2,1.1,1.7-1.1,2.3-4.1,5.8-8.8,4.9c-1.8-.3-.5.8.2.9,2.6.3,3.7-.5,4.6-1.4s2.2-2.4,3.6-2.9,2.9-.5,3,.6-1.9,2.1-2.7,2.5c1,.5,3.9,1.9,1.4,3.6s-4.6-.5-4.9-.7-1.7-.2-1.3.3,5.2,1.3,4.5,2.2c-3.5,4.7-.6,7.5-1.7,12.3s-7.7,7.5-12.8,8.4c-17.4,3.1-34.3-11.6-44.2-22.8.9-2.1.8-4.8-.1-3.8s-.7,2.4-2.8,2.9c-3.9,1-5.7-5.9-6.9-7.1-4.8-4.7-6.7-11.4-3.9-17.3s9-4.7,11.4-1.1,1.7,7,3.4,8.3,4.8.2,5.4,0,1.7,4.3,8,4.1,5.9-10.7,6.9-11.6c8.6-8.4,4.2-15.9,2.6-17.6s1-3.6,1.5-3.7a13,13,0,0,0,9.4-7.7s8.4-.2,11.4-6.2c.8-1.6,3.3,1.5,8.9-2.9a.8.8,0,0,1,1.4.3c3.7,8.9,5.2,11.3,4.9,15.8s8.7,21.5,9.4,23.1S174.8,121.3,174,122.1Z"/><path class="minerva-base-style" d="M153.8,90c-4.9.2-10.6,6.2-12.4,7s-1.3,1.5-.2,1.1,5.9-4.7,10.7-6.4,3.6,1.8,5,1.6S156.6,89.9,153.8,90Z"/><path class="minerva-base-style" d="M154.9,94.8c-.4.1.4,2.2-1.7,2.3-4.6.3-8.3,4.7-11.1,6a12.9,12.9,0,0,1-3.8,1.4.3.3,0,0,0,.1.6c11.7,1.6,16.2,1.1,16.3.7s-.6-1.2-.4-1.7a11.3,11.3,0,0,0,.1-5.5c-.2-.8,1.8-.3,1.8-1.3S155.6,94.7,154.9,94.8Zm-1.8,9.3c-.2.9-5.5.5-8.3.2-.7,0-1.8-.1.3-1.4s4.1-2.8,7.2-3.4a.8.8,0,0,1,.8.6A10.6,10.6,0,0,1,153.1,104.1Z"/><path class="minerva-base-style" d="M168.4,120.8c-.9,0-4.5,1.6-5.9,2.5s-4.4,2.7-4.2-.8c.1-1.3.9-4.4.9-5.3s-1-.7-1.1,0a36.9,36.9,0,0,1-.7,5.3c-.4,1.8,1.2,4,3.6,2.7s4.8-2.9,7.3-3.4C168.9,121.7,169,120.8,168.4,120.8Z"/><path class="minerva-base-style" d="M100.5,133.6c-.7-.3-.5,1.2-1.4,1s-.2-1.3-1.8-3-2.8-1.2-4.3-3.6-.3-12,3.1-10.8,1.6,5,1,8,2.5,2.8,2.8,2.1-1.1-.9-1.4-1.9,3.5-7.6-1.8-9.4c-3.8-1.3-6.4,3.6-5.9,8.9a8,8,0,0,0,5.1,7.1c2.3.8.6,4,3.7,4C101,136,101.3,133.9,100.5,133.6Z"/><path class="minerva-base-style" d="M131.3,33.4c.2.1.3,0,.5-.1l6.5-8.3a.5.5,0,0,0-.2-.6L137,24a.4.4,0,0,0-.5.1L130,32.4c-.2.2-.1.5.2.6Z"/><path class="minerva-base-style" d="M119.2,30l1.1.3a.5.5,0,0,0,.5-.3l3.8-9.4a.4.4,0,0,0-.3-.6l-1.2-.2h-.3l-3.9,9.6A.4.4,0,0,0,119.2,30Z"/><path class="minerva-base-style" d="M105.8,28.7h1.1c.2.1.4-.1.4-.3l1-10a.5.5,0,0,0-.4-.5h-1.1c-.3,0-.4.2-.5.4l-.9,10A.4.4,0,0,0,105.8,28.7Z"/><path class="minerva-base-style" d="M92.8,29.7l1.1-.2c.2,0,.4-.2.3-.4l-1.9-9.9c0-.2-.2-.4-.4-.3H90.7c-.2.1-.4.3-.3.5l1.9,9.9C92.3,29.6,92.5,29.7,92.8,29.7Z"/><path class="minerva-base-style" d="M79.4,32.8l.5.2,1.1-.4a.4.4,0,0,0,.3-.6l-4.6-9a.4.4,0,0,0-.5-.2l-1,.3a.4.4,0,0,0-.3.6Z"/><path class="minerva-base-style" d="M67,38.5c.1.2.3.2.5.1l1-.6a.4.4,0,0,0,.1-.6l-6.7-7.7c-.2-.2-.4-.2-.5-.1l-1,.6c-.3.1-.3.4-.1.6Z"/><path class="minerva-base-style" d="M55.4,46.7c.2.1.4.1.5-.1l.9-.7a.5.5,0,0,0,0-.7l-8.5-5.9h-.5l-.9.8a.5.5,0,0,0,0,.7Z"/><path class="minerva-base-style" d="M45.4,57.1a.4.4,0,0,0,.4-.2l.8-.9c.2-.2.1-.5-.2-.6l-9.8-3.8c-.2-.1-.4-.1-.5.1l-.7.9a.4.4,0,0,0,.2.7Z"/><path class="minerva-base-style" d="M26.8,67.8l10.5,1.5c.2,0,.4-.1.4-.3l.6-1a.4.4,0,0,0-.3-.6L27.5,65.9l-.5.2a5.4,5.4,0,0,1-.5,1.1A.4.4,0,0,0,26.8,67.8Z"/><path class="minerva-base-style" d="M21.1,83.7l10.7-1a.3.3,0,0,0,.3-.3,7.6,7.6,0,0,0,.4-1.1.4.4,0,0,0-.4-.6l-10.8,1-.4.3-.3,1.2C20.6,83.5,20.8,83.8,21.1,83.7Z"/><path class="minerva-base-style" d="M29.2,96.5c0-.4.1-.9.1-1.3s-.2-.5-.5-.4L18.4,98.4c-.2.1-.3.2-.3.4s-.1.8-.1,1.2a.4.4,0,0,0,.6.4l10.3-3.6A.3.3,0,0,0,29.2,96.5Z"/><path class="minerva-base-style" d="M28.9,110.8v-1.3a.5.5,0,0,0-.7-.4l-9.4,6.3c-.2,0-.2.2-.2.4s.1.8.1,1.2a.5.5,0,0,0,.7.3l9.4-6.2C28.9,111,29,110.9,28.9,110.8Z"/><path class="minerva-base-style" d="M31.3,125l-.3-1.3a.4.4,0,0,0-.7-.2L22.6,132c-.1.1-.2.3-.1.4s.3.8.4,1.2a.4.4,0,0,0,.7.2l7.6-8.4C31.3,125.3,31.3,125.2,31.3,125Z"/><path class="minerva-base-style" d="M35.2,137.7,29.8,148c-.1.1,0,.3,0,.4l.7,1.2a.4.4,0,0,0,.7-.1l5.4-10.2c0-.1.1-.2,0-.4l-.6-1.2A.5.5,0,0,0,35.2,137.7Z"/><path class="minerva-base-style" d="M42.9,149.3c-.2-.3-.7-.2-.7.1l-2.9,12c-.1.2,0,.3,0,.4l1,1a.4.4,0,0,0,.7-.1l2.8-11.9c.1-.1,0-.2,0-.3Z"/></g><g transform="translate(366.666 -3.0703809999999976)"><g transform="translate(0 99.060381)" style="fill: #006c66;"><path d="M5.500-62L22.094-62L37.922-17.029L53.656-62L70.328-62L70.328 0L57.594 0L57.594-16.951L58.859-46.213L42.234 0L33.516 0L16.922-46.166L18.203-16.951L18.203 0L5.500 0L5.500-62ZM129.563 0L125.281-12.719L103.031-12.719L98.797 0L85.297 0L108.234-62L120-62L143.063 0L129.563 0ZM114.109-46.339L106.453-23L121.859-23L114.109-46.339ZM168-62L179.547-40.631L191.109-62L205.703-62L187.766-31.259L206.172 0L191.391 0L179.547-21.715L167.703 0L152.938 0L171.344-31.259L153.391-62L168-62ZM275.328-21.703L264.203-21.703L264.203 0L251.500 0L251.500-62L275.531-62Q282.484-62 287.750-59.436Q293.016-56.872 295.852-52.155Q298.688-47.437 298.688-41.410L298.688-41.410Q298.688-32.259 292.484-26.981Q286.281-21.703 275.328-21.703L275.328-21.703ZM264.203-51.719L264.203-32L275.531-32Q280.578-32 283.219-34.415Q285.859-36.830 285.859-41.325L285.859-41.325Q285.859-45.932 283.195-48.786Q280.531-51.639 275.828-51.719L275.828-51.719L264.203-51.719ZM329.203-62L329.203-10.203L356.156-10.203L356.156 0L316.500 0L316.500-62L329.203-62ZM411.563 0L407.281-12.719L385.031-12.719L380.797 0L367.297 0L390.234-62L402-62L425.063 0L411.563 0ZM396.109-46.339L388.453-23L403.859-23L396.109-46.339ZM489.609-62L489.609 0L476.906 0L452.203-40.804L452.203 0L439.500 0L439.500-62L452.203-62L476.953-21.117L476.953-62L489.609-62ZM545.172-20.375L557.875-20.375Q557.156-10.422 550.531-4.711Q543.906 1 533.078 1L533.078 1Q521.219 1 514.430-6.937Q507.641-14.874 507.641-28.728L507.641-28.728L507.641-32.475Q507.641-41.321 510.773-48.054Q513.906-54.786 519.727-58.393Q525.547-62 533.234-62L533.234-62Q543.906-62 550.422-56.281Q556.938-50.563 557.953-40.234L557.953-40.234L545.266-40.234Q544.797-46.203 541.938-48.891Q539.078-51.578 533.234-51.578L533.234-51.578Q526.891-51.578 523.742-47.065Q520.594-42.551 520.500-33.059L520.500-33.059L520.500-28.437Q520.500-18.526 523.531-13.943Q526.563-9.359 533.078-9.359L533.078-9.359Q538.953-9.359 541.852-12.047Q544.750-14.734 545.172-20.375L545.172-20.375ZM609.625 0L593.797-24.875L587.203-17.721L587.203 0L574.500 0L574.500-62L587.203-62L587.203-33.901L592.781-41.606L608.484-62L624.094-62L602.219-34.451L624.734 0L609.625 0ZM682-62L682 0L669.313 0L669.313-62L682-62ZM752.609-62L752.609 0L739.906 0L715.203-40.804L715.203 0L702.500 0L702.500-62L715.203-62L739.953-21.117L739.953-62L752.609-62ZM804.453-15.963L804.453-15.963Q804.453-19.529 801.914-21.436Q799.375-23.344 792.773-25.468Q786.172-27.593 782.313-29.660L782.313-29.660Q771.828-35.289 771.828-44.851L771.828-44.851Q771.828-49.826 774.641-53.721Q777.453-57.615 782.719-59.808Q787.984-62 794.547-62L794.547-62Q801.156-62 806.313-59.613Q811.469-57.227 814.328-52.897Q817.188-48.567 817.188-43.047L817.188-43.047L804.500-43.047Q804.500-47.237 801.828-49.556Q799.156-51.875 794.344-51.875L794.344-51.875Q789.688-51.875 787.102-49.930Q784.516-47.985 784.516-44.820L784.516-44.820Q784.516-41.841 787.547-39.834Q790.578-37.827 796.453-36.052L796.453-36.052Q807.281-32.814 812.234-28.003Q817.188-23.193 817.188-16.032L817.188-16.032Q817.188-8.061 811.141-3.530Q805.094 1 794.844 1L794.844 1Q787.734 1 781.898-1.589Q776.063-4.177 772.992-8.686Q769.922-13.195 769.922-19.119L769.922-19.119L782.656-19.119Q782.656-9.031 794.844-9.031L794.844-9.031Q799.375-9.031 801.914-10.853Q804.453-12.675 804.453-15.963ZM880.875-62L880.875-51.719L862.016-51.719L862.016 0L849.313 0L849.313-51.719L830.688-51.719L830.688-62L880.875-62ZM910-62L910 0L897.313 0L897.313-62L910-62ZM975.875-62L975.875-51.719L957.016-51.719L957.016 0L944.313 0L944.313-51.719L925.688-51.719L925.688-62L975.875-62ZM1025.391-62L1038.141-62L1038.141-21.067Q1038.141-10.869 1031.813-4.934Q1025.484 1 1014.516 1L1014.516 1Q1003.734 1 997.383-4.761Q991.031-10.522 990.906-20.594L990.906-20.594L990.906-62L1003.609-62L1003.609-20.918Q1003.609-14.792 1006.508-11.998Q1009.406-9.203 1014.516-9.203L1014.516-9.203Q1025.234-9.203 1025.391-20.571L1025.391-20.571L1025.391-62ZM1103.875-62L1103.875-51.719L1085.016-51.719L1085.016 0L1072.313 0L1072.313-51.719L1053.688-51.719L1053.688-62L1103.875-62ZM1156.578-37L1156.578-27.063L1132.203-27.063L1132.203-10.203L1160.797-10.203L1160.797 0L1119.500 0L1119.500-62L1160.719-62L1160.719-51.719L1132.203-51.719L1132.203-37L1156.578-37Z"/></g><g transform="translate(0 179.070381)" style="fill: #006c66;"><path d="M33.219-27L33.219-21.641L12.344-21.641L12.344 0L5.781 0L5.781-50L36.609-50L36.609-44.594L12.344-44.594L12.344-27L33.219-27ZM85.063-26.035L85.063-22.903Q85.063-15.610 82.602-10.172Q80.141-4.734 75.625-1.867Q71.109 1 65.094 1L65.094 1Q59.219 1 54.672-1.883Q50.125-4.765 47.617-10.102Q45.109-15.439 45.031-22.451L45.031-22.451L45.031-26.035Q45.031-33.187 47.531-38.680Q50.031-44.172 54.594-47.086Q59.156-50 65.031-50L65.031-50Q71.016-50 75.578-47.117Q80.141-44.235 82.602-38.765Q85.063-33.296 85.063-26.035L85.063-26.035ZM78.531-22.421L78.531-26.096Q78.531-34.924 74.977-39.642Q71.422-44.359 65.031-44.359L65.031-44.359Q58.813-44.359 55.242-39.642Q51.672-34.924 51.563-26.547L51.563-26.547L51.563-22.904Q51.563-14.356 55.172-9.467Q58.781-4.578 65.094-4.578L65.094-4.578Q71.453-4.578 74.938-9.195Q78.422-13.811 78.531-22.421L78.531-22.421ZM126.828 0L116.031-20.625L104.344-20.625L104.344 0L97.750 0L97.750-50L114.219-50Q122.625-50 127.156-46.206Q131.688-42.412 131.688-35.165L131.688-35.165Q131.688-30.551 129.172-27.136Q126.656-23.722 122.188-22.019L122.188-22.019L133.875-0.415L133.875 0L126.828 0ZM104.344-44.594L104.344-26L114.422-26Q119.313-26 122.203-28.496Q125.094-30.991 125.094-35.166L125.094-35.166Q125.094-39.710 122.336-42.137Q119.578-44.563 114.391-44.594L114.391-44.594L104.344-44.594ZM197.156-50L197.156-44.594L181.172-44.594L181.172 0L174.641 0L174.641-44.594L158.672-44.594L158.672-50L197.156-50ZM246.031-50L246.031 0L239.422 0L239.422-22.625L214.344-22.625L214.344 0L207.781 0L207.781-50L214.344-50L214.344-28L239.422-28L239.422-50L246.031-50ZM287.906-29L287.906-23.625L266.344-23.625L266.344-5.359L291.391-5.359L291.391 0L259.781 0L259.781-50L291.047-50L291.047-44.594L266.344-44.594L266.344-29L287.906-29ZM337.438-21.812L337.438-21.812Q329-24.227 325.156-27.757Q321.313-31.286 321.313-36.459L321.313-36.459Q321.313-42.334 326.008-46.167Q330.703-50 338.219-50L338.219-50Q343.359-50 347.375-48.016Q351.391-46.031 353.594-42.547Q355.797-39.063 355.797-34.922L355.797-34.922L349.203-34.922Q349.203-39.438 346.328-42.016Q343.453-44.594 338.219-44.594L338.219-44.594Q333.375-44.594 330.656-42.470Q327.938-40.347 327.938-36.567L327.938-36.567Q327.938-33.533 330.516-31.441Q333.094-29.349 339.297-27.614Q345.500-25.880 349.008-23.783Q352.516-21.686 354.203-18.887Q355.891-16.088 355.891-12.300L355.891-12.300Q355.891-6.266 351.180-2.633Q346.469 1 338.563 1L338.563 1Q333.438 1 328.992-0.969Q324.547-2.938 322.141-6.352Q319.734-9.766 319.734-14.109L319.734-14.109L326.328-14.109Q326.328-9.594 329.664-6.984Q333-4.375 338.563-4.375L338.563-4.375Q343.766-4.375 346.531-6.484Q349.297-8.594 349.297-12.236Q349.297-15.879 346.734-17.872Q344.172-19.864 337.438-21.812ZM401.156-50L401.156-44.594L385.172-44.594L385.172 0L378.641 0L378.641-44.594L362.672-44.594L362.672-50L401.156-50ZM440.219-50L446.813-50L446.813-15.789Q446.781-8.682 442.391-4.157Q438 0.368 430.469 0.921L430.469 0.921L428.734 1Q420.563 1 415.711-3.462Q410.859-7.924 410.781-15.726L410.781-15.726L410.781-50L417.281-50L417.281-15.888Q417.281-10.432 420.258-7.403Q423.234-4.375 428.734-4.375L428.734-4.375Q434.297-4.375 437.258-7.380Q440.219-10.385 440.219-15.856L440.219-15.856L440.219-50ZM473.547 0L459.781 0L459.781-50L473.828-50Q480.313-50 485.305-47.119Q490.297-44.239 493.016-38.909Q495.734-33.579 495.766-26.688L495.766-26.688L495.766-23.485Q495.766-16.421 493.047-11.099Q490.328-5.777 485.289-2.920Q480.250-0.063 473.547 0L473.547 0ZM474-44.594L466.344-44.594L466.344-5.359L473.250-5.359Q480.828-5.359 485.055-10.106Q489.281-14.854 489.281-23.625L489.281-23.625L489.281-26.548Q489.281-35.068 485.297-39.799Q481.313-44.531 474-44.594L474-44.594ZM509.031-50L521.953-24.898L534.938-50L542.391-50L525.234-18.650L525.234 0L518.672 0L518.672-18.650L501.516-50L509.031-50ZM610.063-26.035L610.063-22.903Q610.063-15.610 607.602-10.172Q605.141-4.734 600.625-1.867Q596.109 1 590.094 1L590.094 1Q584.219 1 579.672-1.883Q575.125-4.765 572.617-10.102Q570.109-15.439 570.031-22.451L570.031-22.451L570.031-26.035Q570.031-33.187 572.531-38.680Q575.031-44.172 579.594-47.086Q584.156-50 590.031-50L590.031-50Q596.016-50 600.578-47.117Q605.141-44.235 607.602-38.765Q610.063-33.296 610.063-26.035L610.063-26.035ZM603.531-22.421L603.531-26.096Q603.531-34.924 599.977-39.642Q596.422-44.359 590.031-44.359L590.031-44.359Q583.813-44.359 580.242-39.642Q576.672-34.924 576.563-26.547L576.563-26.547L576.563-22.904Q576.563-14.356 580.172-9.467Q583.781-4.578 590.094-4.578L590.094-4.578Q596.453-4.578 599.938-9.195Q603.422-13.811 603.531-22.421L603.531-22.421ZM650.219-27L650.219-21.641L629.344-21.641L629.344 0L622.781 0L622.781-50L653.609-50L653.609-44.594L629.344-44.594L629.344-27L650.219-27Z"/></g><g transform="translate(0 259.080381)" style="fill: #006c66;"><path d="M35.781-15.484L42.391-15.484Q41.453-7.578 36.555-3.289Q31.656 1 23.516 1L23.516 1Q14.703 1 9.383-5.311Q4.063-11.621 4.063-22.186L4.063-22.186L4.063-26.954Q4.063-33.873 6.547-39.124Q9.031-44.375 13.570-47.187Q18.109-50 24.094-50L24.094-50Q32.031-50 36.813-45.570Q41.594-41.141 42.391-33.313L42.391-33.313L35.781-33.313Q34.938-39.266 32.078-41.930Q29.219-44.594 24.094-44.594L24.094-44.594Q17.813-44.594 14.242-39.962Q10.672-35.329 10.672-26.781L10.672-26.781L10.672-21.985Q10.672-13.904 14.055-9.140Q17.438-4.375 23.516-4.375L23.516-4.375Q28.984-4.375 31.906-6.852Q34.828-9.328 35.781-15.484L35.781-15.484ZM82.828 0L72.031-20.625L60.344-20.625L60.344 0L53.750 0L53.750-50L70.219-50Q78.625-50 83.156-46.206Q87.688-42.412 87.688-35.165L87.688-35.165Q87.688-30.551 85.172-27.136Q82.656-23.722 78.188-22.019L78.188-22.019L89.875-0.415L89.875 0L82.828 0ZM60.344-44.594L60.344-26L70.422-26Q75.313-26 78.203-28.496Q81.094-30.991 81.094-35.166L81.094-35.166Q81.094-39.710 78.336-42.137Q75.578-44.563 70.391-44.594L70.391-44.594L60.344-44.594ZM106.813-50L106.813 0L100.250 0L100.250-50L106.813-50ZM121.781-50L130.250-50L146.516-9.199L162.797-50L171.297-50L171.297 0L164.734 0L164.734-19.466L165.359-40.487L149.016 0L144 0L127.688-40.392L128.344-19.466L128.344 0L121.781 0L121.781-50ZM213.906-29L213.906-23.625L192.344-23.625L192.344-5.359L217.391-5.359L217.391 0L185.781 0L185.781-50L217.047-50L217.047-44.594L192.344-44.594L192.344-29L213.906-29ZM227.578 10L227.578 10L223.984 7.534Q227.203 3.025 227.344-1.751L227.344-1.751L227.344-7.484L233.531-7.484L233.531-2.505Q233.531 0.967 231.836 4.439Q230.141 7.911 227.578 10ZM279.438-21.812L279.438-21.812Q271-24.227 267.156-27.757Q263.313-31.286 263.313-36.459L263.313-36.459Q263.313-42.334 268.008-46.167Q272.703-50 280.219-50L280.219-50Q285.359-50 289.375-48.016Q293.391-46.031 295.594-42.547Q297.797-39.063 297.797-34.922L297.797-34.922L291.203-34.922Q291.203-39.438 288.328-42.016Q285.453-44.594 280.219-44.594L280.219-44.594Q275.375-44.594 272.656-42.470Q269.938-40.347 269.938-36.567L269.938-36.567Q269.938-33.533 272.516-31.441Q275.094-29.349 281.297-27.614Q287.500-25.880 291.008-23.783Q294.516-21.686 296.203-18.887Q297.891-16.088 297.891-12.300L297.891-12.300Q297.891-6.266 293.180-2.633Q288.469 1 280.563 1L280.563 1Q275.438 1 270.992-0.969Q266.547-2.938 264.141-6.352Q261.734-9.766 261.734-14.109L261.734-14.109L268.328-14.109Q268.328-9.594 271.664-6.984Q275-4.375 280.563-4.375L280.563-4.375Q285.766-4.375 288.531-6.484Q291.297-8.594 291.297-12.236Q291.297-15.879 288.734-17.872Q286.172-19.864 279.438-21.812ZM337.906-29L337.906-23.625L316.344-23.625L316.344-5.359L341.391-5.359L341.391 0L309.781 0L309.781-50L341.047-50L341.047-44.594L316.344-44.594L316.344-29L337.906-29ZM381.781-15.484L388.391-15.484Q387.453-7.578 382.555-3.289Q377.656 1 369.516 1L369.516 1Q360.703 1 355.383-5.311Q350.063-11.621 350.063-22.186L350.063-22.186L350.063-26.954Q350.063-33.873 352.547-39.124Q355.031-44.375 359.570-47.187Q364.109-50 370.094-50L370.094-50Q378.031-50 382.813-45.570Q387.594-41.141 388.391-33.313L388.391-33.313L381.781-33.313Q380.938-39.266 378.078-41.930Q375.219-44.594 370.094-44.594L370.094-44.594Q363.813-44.594 360.242-39.962Q356.672-35.329 356.672-26.781L356.672-26.781L356.672-21.985Q356.672-13.904 360.055-9.140Q363.438-4.375 369.516-4.375L369.516-4.375Q374.984-4.375 377.906-6.852Q380.828-9.328 381.781-15.484L381.781-15.484ZM429.219-50L435.813-50L435.813-15.789Q435.781-8.682 431.391-4.157Q427 0.368 419.469 0.921L419.469 0.921L417.734 1Q409.563 1 404.711-3.462Q399.859-7.924 399.781-15.726L399.781-15.726L399.781-50L406.281-50L406.281-15.888Q406.281-10.432 409.258-7.403Q412.234-4.375 417.734-4.375L417.734-4.375Q423.297-4.375 426.258-7.380Q429.219-10.385 429.219-15.856L429.219-15.856L429.219-50ZM477.828 0L467.031-20.625L455.344-20.625L455.344 0L448.750 0L448.750-50L465.219-50Q473.625-50 478.156-46.206Q482.688-42.412 482.688-35.165L482.688-35.165Q482.688-30.551 480.172-27.136Q477.656-23.722 473.188-22.019L473.188-22.019L484.875-0.415L484.875 0L477.828 0ZM455.344-44.594L455.344-26L465.422-26Q470.313-26 473.203-28.496Q476.094-30.991 476.094-35.166L476.094-35.166Q476.094-39.710 473.336-42.137Q470.578-44.563 465.391-44.594L465.391-44.594L455.344-44.594ZM501.813-50L501.813 0L495.250 0L495.250-50L501.813-50ZM549.156-50L549.156-44.594L533.172-44.594L533.172 0L526.641 0L526.641-44.594L510.672-44.594L510.672-50L549.156-50ZM563.031-50L575.953-24.898L588.938-50L596.391-50L579.234-18.650L579.234 0L572.672 0L572.672-18.650L555.516-50L563.031-50ZM658.016 0L653.250-12.594L632.406-12.594L627.719 0L620.953 0L639.969-50L645.703-50L664.734 0L658.016 0ZM642.828-41.868L634.391-18L651.313-18L642.828-41.868ZM712.031-50L712.031 0L705.422 0L680.375-38.524L680.375 0L673.781 0L673.781-50L680.375-50L705.500-11.303L705.500-50L712.031-50ZM740.547 0L726.781 0L726.781-50L740.828-50Q747.313-50 752.305-47.119Q757.297-44.239 760.016-38.909Q762.734-33.579 762.766-26.688L762.766-26.688L762.766-23.485Q762.766-16.421 760.047-11.099Q757.328-5.777 752.289-2.920Q747.250-0.063 740.547 0L740.547 0ZM741-44.594L733.344-44.594L733.344-5.359L740.250-5.359Q747.828-5.359 752.055-10.106Q756.281-14.854 756.281-23.625L756.281-23.625L756.281-26.548Q756.281-35.068 752.297-39.799Q748.313-44.531 741-44.594L741-44.594ZM802.375-50L802.375-5.359L825.953-5.359L825.953 0L795.781 0L795.781-50L802.375-50ZM869.016 0L864.250-12.594L843.406-12.594L838.719 0L831.953 0L850.969-50L856.703-50L875.734 0L869.016 0ZM853.828-41.868L845.391-18L862.313-18L853.828-41.868ZM885.641-50L893.516-15.761L894.469-9.168L895.875-15.118L905.719-50L911.250-50L920.859-15.118L922.219-9.074L923.281-15.793L931-50L937.594-50L925.531 0L919.547 0L909.297-36.436L908.516-40.251L907.734-36.436L897.094 0L891.109 0L879.078-50L885.641-50Z"/></g></g></svg>