<svg xmlns="http://www.w3.org/2000/svg" viewBox="0 0 2500 300"><defs><style>.minerva-base-style{}</style></defs><g transform="translate(0 0) scale(1.4285714285714286) translate(0 0)" style="fill: #006c66;"><title>minerva</title><path d="M105,0A105,105,0,1,0,210,105,105.1,105.1,0,0,0,105,0Zm0,207.1A102.1,102.1,0,1,1,207.1,105,102.2,102.2,0,0,1,105,207.1Z"/><path class="minerva-base-style" d="M166.6,97c-1.4-3.1-.5-5.1-.9-7.3s-2.7-7-4.3-10.8c-.7-1.7,3.8-1.3.4-7.6,0-.2,4.7-2,0-5.5a26.4,26.4,0,0,1-6-6.7,1,1,0,0,1,0-1.3c2.7-2.4,2.8-5.8-.1-7.5s-4.5,0-6.7,1.4c-.7.5-1.1.8-1.9.5L145.3,51c2.7-2.6,3.3-5.2,3.1-5.6s-4.6-1.3-10.2,1l-.4-.3c2.3-3.9,1-6.7.9-6.9h-.1A81,81,0,0,1,151,25.9h.1c.2-.3.3-.6-.2-.9l-1-.6A92.4,92.4,0,0,0,12.7,105c0,29.5,15,57.9,39.4,75.6a13.5,13.5,0,0,0,2.8,1.6A1.1,1.1,0,0,0,56,182l.3-.5a1,1,0,0,0,.3-.8c0-.7-.9-1.3-2.1-3a27.7,27.7,0,0,1-4.7-15.1,22.1,22.1,0,0,1,4.5-13.7c3.7,3.9,11.7,10.9,11.5,17.4s-6.9,6.8-5.4,12.2c.9,3.4,3.4,2,3.9,4.6.7,4.4,6.7,7.3,9.3,6.9.7-.1,1.2.4,2.4,1.7s6.2,1.6,8.2,1.2,4.1,1.4,8,.9,6.1-.9,8.2-.9,22.5-.3,36,1.8c2.4.4,3.1-.7,2.1-2.5-4.9-8.6-5.6-15.8-2.8-25,5,.4,12.2,1.7,21.6-4a11,11,0,0,0,5.1-9.5c-.1-2.1-1-4.7-.5-6.7s1.3-2.7,2.1-3.2c3.6-2.6,1-4.6.4-4.8a3.4,3.4,0,0,0,1.1-4.6c-.7-.7-2.7-6.2-.4-7.3s5.3-1.8,8.1-3.1a4.5,4.5,0,0,0,2.4-6C174.2,114.4,166.8,97.4,166.6,97ZM64.7,179.1c-.7.2-2.9.3-2.4-2.7s2.3-2.6,3.3-1.6S64.9,177.6,64.7,179.1Zm87-125.9c1.2-.8,2.5-1.1,3.3-.4,2.6,2.6-2.9,4.1-1.8,6.1a30.7,30.7,0,0,0,7.5,8.4c1.2,1,1.4,3.1-3.3,4.1s-23.6,5.9-33.6,16.5c-12.5,13.2-20.4,30.3-21.5,28s-3.6-2.8-3.2-3.5C117,81.6,145.1,57.3,151.7,53.2Zm8.2,21.7c-1,2.9-9.1,5.5-8.7,3.5s0-2.2.6-2.3,3.5-1.1,7.5-2.1C159.7,73.9,160.2,74.1,159.9,74.9Zm-20.6,5.3c-.2-1.2,8.5-4.1,8.8-3.3s-1.8,6-4.7,7-4.7.9-4.6.4A11,11,0,0,0,139.3,80.2ZM119,125.8c-4,2.5-6.2-2.2-6.8-3.1a3.7,3.7,0,0,1-.5-3.1c.3-1.4.5-3.3-.4-9.3-.4-2.7,5-9.2,6.3-10.4s3.1.6,3.2,2.6c.3,3.6-1.8,5.6-3.9,7.2s-3.1,4.4-2.6,5.1a1.5,1.5,0,0,0,1.9-.9c1.5-3.3,6-4.9,6.7-6.7s.3-4.4.2-5.6.9-1.2,1.6-1.1,1.4,1.4,1.8,2.7c2.9,7.5-4.3,12-5.5,13.8S122.1,123.9,119,125.8Zm6.1-29.1c-2.2,1.5-5.3-.5-4.7-1.4a43.7,43.7,0,0,1,11.5-11c3.4-2.1,3.8-2.3,4-1.1a10.6,10.6,0,0,1-2.6,7.5c-2.3,2.5-4.6,2.3-5.8,2.6S126.7,95.6,125.1,96.7Zm-19.3,25.6c-1-.2-1.4-2.1-1.2-2.9s3.1-5.2,4-6.4a.5.5,0,0,1,.8.3C110,117.4,109.4,123.1,105.8,122.3ZM138,48.2a17.7,17.7,0,0,1,7.5-1.6c.8.1-1.9,4.8-6.6,6.8s-8.5,2.5-8.9,2.3S134.1,49.9,138,48.2ZM54.7,126.5c-1.5-1.7-2.8-2.6-2.9-2.5a22.4,22.4,0,0,0-3.6,8.9A65.4,65.4,0,0,1,40.7,105C39.3,69.6,69,41.1,105.2,41.2a56.8,56.8,0,0,1,22.4,4.6,31.3,31.3,0,0,0-3.7,6.6c0-1.9-.5-3.4-.4-4.6s-5.1.9-9.7,8.3a19.9,19.9,0,0,0-2.2,5.3c-.1-2.8-.7-4.9-.9-4.9a16.1,16.1,0,0,0-8.5,8.8,22.4,22.4,0,0,0-1.1,3.4c-.2-1.9-.7-3.2-.9-3.2s-5.9,2.3-8.6,8.9A15.4,15.4,0,0,0,90.5,79c-.5-2.3-1.4-3.7-1.7-3.4-1.9,2.4-5.7,3.5-7.6,9.6a13.2,13.2,0,0,0-.7,4.2c-.8-2-2-3.2-2.3-3.2s-6.1,5.5-7,10.9a15.8,15.8,0,0,0,.2,5.8c-1.1-1.8-2.5-3-3.1-4.8-.9.5-5.7,5-5.8,10.7a19.7,19.7,0,0,0,.7,6.1c-1.6-2.9-3.8-4.2-4.1-4.1s-4,4.1-4.8,11.1A11.8,11.8,0,0,0,54.7,126.5Zm74.1-79.7c2.8-3.4,7.6-6.1,8.2-5.8s-.8,5.6-3.9,8.6-8.1,6.2-8.6,6.1S126.2,49.8,128.8,46.8Zm-9.3,13a21,21,0,0,0-5.6,6.4c-.5.9-1.9-5,1.7-10.6,2.2-3.5,6.6-6.6,6.5-6.2S124.2,56,119.5,59.8Zm-10.1,7.5c-3.4,5.1-3.6,3.3-7.3,8.3-.2.2-.2-6.5,1.1-9.4,2.1-4.7,5.7-7.4,6.2-7.5S111.3,64.5,109.4,67.3ZM98.3,77.4c-1.7,3-3.3,2.3-6.2,6.7-.3.4-1.1-3.6.7-9.1a12.6,12.6,0,0,1,5.9-6.9C99.3,68,100.4,73.8,98.3,77.4ZM88,88.1c-1.8,3.9-2.9,4-5,6.4-.3.4-1.8-3.7-.4-8.8s4-5.6,5.3-7S89.9,84,88,88.1Zm-8.4,6.6a10.3,10.3,0,0,1-.4,3c-1.3,4.3-3.9,6.2-5.3,8.1a15.7,15.7,0,0,1-1.6-5.8,15.2,15.2,0,0,1,5.2-11.2C78.3,88.8,79.6,92,79.6,94.7Zm-8.5,12.8A14.9,14.9,0,0,1,66,118.3a17.7,17.7,0,0,1-2.2-7.6c-.2-6.3,2.4-8.5,3.6-9.7C67.9,102.8,71.1,104.2,71.1,107.5ZM59,113.8c1.8.9,3.9,3.4,4.1,8.2s-3.2,8.7-4.6,9.4c-.9-3.7-2.6-4.4-2.6-8A18,18,0,0,1,59,113.8Zm7.3,12.5c4.6-2,9.6-1.7,9.8-1.5s-1.5,5.9-5.9,8.2-9.5,2.7-10,2.1S61.7,128.3,66.3,126.3Zm-.4-3.4c.3-1.5,3-6.5,7.1-8.3h0a18.4,18.4,0,0,1,9.4-1.5c.5.2-1.7,5.6-5.8,7.6S70.1,121.6,65.9,122.9Zm6.9-11.8c.2-.4,3.5-6.4,7.4-8.2a17.5,17.5,0,0,1,8.9-1.4c.3.1-1.8,5.4-6.2,7.6S72.6,111.6,72.8,111.1Zm8.9-11.9c-.3-.2,4.4-6.4,8.4-8.3a15.6,15.6,0,0,1,8.4-1c.3.3-1.9,5.5-6.5,7.5A24.2,24.2,0,0,1,81.7,99.2ZM92.4,87.4c-.2-.2,3.4-6.3,7.4-7.9s7.7-.1,8.9,0-1.3,4.5-6.6,6.4S93.1,87.7,92.4,87.4Zm12-11.4c.1-.3,4.1-5.9,8.1-7.3a16.4,16.4,0,0,1,9.2-.2c.5.2-2.8,5-7.7,6.5S104.3,76.3,104.4,76Zm12.1-9.9c-.5-.3,4.3-5.7,8.2-7.2a18,18,0,0,1,8.3-1c.3.2-2.5,4.9-7.1,6.7S117.1,66.5,116.5,66.1ZM50.2,175.3C28.6,158.1,15.6,132.1,15.6,105A89.3,89.3,0,0,1,146.4,25.8a.4.4,0,0,1,.1.7,97.3,97.3,0,0,0-10.2,11.4,73.1,73.1,0,0,0-31.3-7A74.3,74.3,0,0,0,30.9,105a72.1,72.1,0,0,0,17.9,48.2,23.1,23.1,0,0,0-1.9,9.4A25.6,25.6,0,0,0,50.2,175.3Zm.2-24.8h-.1A69.2,69.2,0,0,1,33.9,105,71.2,71.2,0,0,1,105,33.9a70.1,70.1,0,0,1,29.6,6.4,22.6,22.6,0,0,0-4.1,2.6A63.1,63.1,0,0,0,105,37.8,67.3,67.3,0,0,0,37.8,105c0,16.1,5,30.2,14.8,42C52.1,147.9,51.3,149.1,50.4,150.5Zm3.5-5.6c-1.3-1.2-4.1-4.3-4.4-8.3V136c0-4.3,1.9-8.6,2.4-9s5.3,3.3,5.4,8.7A14.4,14.4,0,0,1,53.9,144.9Zm8-7.2c3.9-1.8,9.6-1.4,9.3-1.1s-1.8,5.8-6.2,8a12.1,12.1,0,0,1-8.7,1.3C58.6,143.3,58.1,139.5,61.9,137.7Zm5.2,46.5c-.6-2.7-.4-6.3.5-7.3s4.9-1.2,5-.1-1.1,5.4.3,10.2C72.6,187.7,68.3,187.4,67.1,184.2Zm.3-11.1c-.3-2,1.6-3.9,1.6-8.2s-6.6-12.6-11.1-17.3a19.5,19.5,0,0,0,7.9-1.9c6.6-3.1,7.9-10.1,8.1-10.4a11,11,0,0,0-3.8-.4l.8-.4c6.4-3.5,8.1-11,7.8-11.1a17,17,0,0,0-4-.3l2-.7c6.8-2.7,8.7-10.3,8.5-10.6a16.1,16.1,0,0,0-3.5-.4l1.9-.8c6.2-3.1,8.4-10.1,8.1-10.3a10.5,10.5,0,0,0-3.3-.4,23.7,23.7,0,0,0,4.5-1.5c6.7-2.9,8.9-9.3,8.6-9.6a10.9,10.9,0,0,0-3-.5,34.5,34.5,0,0,0,4.4-1.3c6.6-2.2,9.2-8.5,8.8-8.6l-3.7-.8a24.5,24.5,0,0,0,6.6-1.3c7.1-2.4,9.6-6.7,9.8-8.6a6,6,0,0,0-2.3-.8,29.3,29.3,0,0,0,4.7-1.2c6.6-2.7,9.4-9.3,9.6-9.8a29.3,29.3,0,0,0,3.9-1.6l1.9-.9,1.6,1.1c1,.6,1.4.8.9,1.2C122,75,105,99.5,97.6,111.3c-.2.4-.6.3-1.3.3-7.9-.6-12.4,8.9-8.9,17.8-.4,1.8-4.2,5.3-4.5,5.5s-1,1.4.3,1.3,4.2-3.2,5.4-4.5c.4.6,2.2,2,1.3,2.8A63.6,63.6,0,0,1,76,145c-2.6,1.2,4.2,2.1,15.7-8.3.7-.6,1.5,2.4,2.5,3.7-2,6.5,2.9,19.1,2.1,23a2.8,2.8,0,0,1-2.8,2.7c-11.4.3-12.5-.3-18.3,1.4-2.7.8-2,2.6-.1,2.1s4.6-1.5,16.9-.7c3.1.1,6.5-.6,6.5-5.7s-3.6-18.4-2.4-20.3a6.9,6.9,0,0,0,3.5,1.4c-.2,4.5,7,19,3.8,27-1.2,3-6.4,2.7-15.4,1.8C72.7,171.6,67.7,174.9,67.4,173.1Zm35.1,9.9c-5.9,2-8.3-4.9-7.3-6.4s4.4,1,7.3-.9S106,181.8,102.5,183Zm-27,4.3c-.8-3.7-1.1-10,.4-11.5s4.9-.9,4.8.2c-.3,4.3-2.1,9.2,1.2,14.1C83.2,192,76.7,192.3,75.5,187.3Zm11.4,4.2c-1.6-.4-6-7.4-2.4-15.8.3-.8,5.8-.3,6.8,0s-.8,6.8,6.8,9.8C98.8,185.8,98,194.3,86.9,191.5Zm47.2-23.3c-2.5,8.8-3.8,12.3,0,21.9.5,1.3.9,2.3-.2,2.1-7.7-1.4-9.4-2.6-33.7-.6-1.7.2.6-3.4.3-5.8,2.2-.3,5.8-1.3,6.5-4.9s-2.1-7.6-1.8-8.2c3.5-6.7-.2-14.1-3.1-26.6-.3-1.2.4-1.7.9-1.1,15.6,16.9,25.5,20.2,30.9,21.8C134.4,167,134.3,167.6,134.1,168.2ZM174,122.1c-3.3,2.9-8.3,3.1-10.3,4.9s-1.5,2.5-.4,5.2,1.1,1.7-1.1,2.3-4.1,5.8-8.8,4.9c-1.8-.3-.5.8.2.9,2.6.3,3.7-.5,4.6-1.4s2.2-2.4,3.6-2.9,2.9-.5,3,.6-1.9,2.1-2.7,2.5c1,.5,3.9,1.9,1.4,3.6s-4.6-.5-4.9-.7-1.7-.2-1.3.3,5.2,1.3,4.5,2.2c-3.5,4.7-.6,7.5-1.7,12.3s-7.7,7.5-12.8,8.4c-17.4,3.1-34.3-11.6-44.2-22.8.9-2.1.8-4.8-.1-3.8s-.7,2.4-2.8,2.9c-3.9,1-5.7-5.9-6.9-7.1-4.8-4.7-6.7-11.4-3.9-17.3s9-4.7,11.4-1.1,1.7,7,3.4,8.3,4.8.2,5.4,0,1.7,4.3,8,4.1,5.9-10.7,6.9-11.6c8.6-8.4,4.2-15.9,2.6-17.6s1-3.6,1.5-3.7a13,13,0,0,0,9.4-7.7s8.4-.2,11.4-6.2c.8-1.6,3.3,1.5,8.9-2.9a.8.8,0,0,1,1.4.3c3.7,8.9,5.2,11.3,4.9,15.8s8.7,21.5,9.4,23.1S174.8,121.3,174,122.1Z"/><path class="minerva-base-style" d="M153.8,90c-4.9.2-10.6,6.2-12.4,7s-1.3,1.5-.2,1.1,5.9-4.7,10.7-6.4,3.6,1.8,5,1.6S156.6,89.9,153.8,90Z"/><path class="minerva-base-style" d="M154.9,94.8c-.4.1.4,2.2-1.7,2.3-4.6.3-8.3,4.7-11.1,6a12.9,12.9,0,0,1-3.8,1.4.3.3,0,0,0,.1.6c11.7,1.6,16.2,1.1,16.3.7s-.6-1.2-.4-1.7a11.3,11.3,0,0,0,.1-5.5c-.2-.8,1.8-.3,1.8-1.3S155.6,94.7,154.9,94.8Zm-1.8,9.3c-.2.9-5.5.5-8.3.2-.7,0-1.8-.1.3-1.4s4.1-2.8,7.2-3.4a.8.8,0,0,1,.8.6A10.6,10.6,0,0,1,153.1,104.1Z"/><path class="minerva-base-style" d="M168.4,120.8c-.9,0-4.5,1.6-5.9,2.5s-4.4,2.7-4.2-.8c.1-1.3.9-4.4.9-5.3s-1-.7-1.1,0a36.9,36.9,0,0,1-.7,5.3c-.4,1.8,1.2,4,3.6,2.7s4.8-2.9,7.3-3.4C168.9,121.7,169,120.8,168.4,120.8Z"/><path class="minerva-base-style" d="M100.5,133.6c-.7-.3-.5,1.2-1.4,1s-.2-1.3-1.8-3-2.8-1.2-4.3-3.6-.3-12,3.1-10.8,1.6,5,1,8,2.5,2.8,2.8,2.1-1.1-.9-1.4-1.9,3.5-7.6-1.8-9.4c-3.8-1.3-6.4,3.6-5.9,8.9a8,8,0,0,0,5.1,7.1c2.3.8.6,4,3.7,4C101,136,101.3,133.9,100.5,133.6Z"/><path class="minerva-base-style" d="M131.3,33.4c.2.1.3,0,.5-.1l6.5-8.3a.5.5,0,0,0-.2-.6L137,24a.4.4,0,0,0-.5.1L130,32.4c-.2.2-.1.5.2.6Z"/><path class="minerva-base-style" d="M119.2,30l1.1.3a.5.5,0,0,0,.5-.3l3.8-9.4a.4.4,0,0,0-.3-.6l-1.2-.2h-.3l-3.9,9.6A.4.4,0,0,0,119.2,30Z"/><path class="minerva-base-style" d="M105.8,28.7h1.1c.2.1.4-.1.4-.3l1-10a.5.5,0,0,0-.4-.5h-1.1c-.3,0-.4.2-.5.4l-.9,10A.4.4,0,0,0,105.8,28.7Z"/><path class="minerva-base-style" d="M92.8,29.7l1.1-.2c.2,0,.4-.2.3-.4l-1.9-9.9c0-.2-.2-.4-.4-.3H90.7c-.2.1-.4.3-.3.5l1.9,9.9C92.3,29.6,92.5,29.7,92.8,29.7Z"/><path class="minerva-base-style" d="M79.4,32.8l.5.2,1.1-.4a.4.4,0,0,0,.3-.6l-4.6-9a.4.4,0,0,0-.5-.2l-1,.3a.4.4,0,0,0-.3.6Z"/><path class="minerva-base-style" d="M67,38.5c.1.2.3.2.5.1l1-.6a.4.4,0,0,0,.1-.6l-6.7-7.7c-.2-.2-.4-.2-.5-.1l-1,.6c-.3.1-.3.4-.1.6Z"/><path class="minerva-base-style" d="M55.4,46.7c.2.1.4.1.5-.1l.9-.7a.5.5,0,0,0,0-.7l-8.5-5.9h-.5l-.9.8a.5.5,0,0,0,0,.7Z"/><path class="minerva-base-style" d="M45.4,57.1a.4.4,0,0,0,.4-.2l.8-.9c.2-.2.1-.5-.2-.6l-9.8-3.8c-.2-.1-.4-.1-.5.1l-.7.9a.4.4,0,0,0,.2.7Z"/><path class="minerva-base-style" d="M26.8,67.8l10.5,1.5c.2,0,.4-.1.4-.3l.6-1a.4.4,0,0,0-.3-.6L27.5,65.9l-.5.2a5.4,5.4,0,0,1-.5,1.1A.4.4,0,0,0,26.8,67.8Z"/><path class="minerva-base-style" d="M21.1,83.7l10.7-1a.3.3,0,0,0,.3-.3,7.6,7.6,0,0,0,.4-1.1.4.4,0,0,0-.4-.6l-10.8,1-.4.3-.3,1.2C20.6,83.5,20.8,83.8,21.1,83.7Z"/><path class="minerva-base-style" d="M29.2,96.5c0-.4.1-.9.1-1.3s-.2-.5-.5-.4L18.4,98.4c-.2.1-.3.2-.3.4s-.1.8-.1,1.2a.4.4,0,0,0,.6.4l10.3-3.6A.3.3,0,0,0,29.2,96.5Z"/><path class="minerva-base-style" d="M28.9,110.8v-1.3a.5.5,0,0,0-.7-.4l-9.4,6.3c-.2,0-.2.2-.2.4s.1.8.1,1.2a.5.5,0,0,0,.7.3l9.4-6.2C28.9,111,29,110.9,28.9,110.8Z"/><path class="minerva-base-style" d="M31.3,125l-.3-1.3a.4.4,0,0,0-.7-.2L22.6,132c-.1.1-.2.3-.1.4s.3.8.4,1.2a.4.4,0,0,0,.7.2l7.6-8.4C31.3,125.3,31.3,125.2,31.3,125Z"/><path class="minerva-base-style" d="M35.2,137.7,29.8,148c-.1.1,0,.3,0,.4l.7,1.2a.4.4,0,0,0,.7-.1l5.4-10.2c0-.1.1-.2,0-.4l-.6-1.2A.5.5,0,0,0,35.2,137.7Z"/><path class="minerva-base-style" d="M42.9,149.3c-.2-.3-.7-.2-.7.1l-2.9,12c-.1.2,0,.3,0,.4l1,1a.4.4,0,0,0,.7-.1l2.8-11.9c.1-.1,0-.2,0-.3Z"/></g><g transform="translate(366.666 -3.0703809999999976)"><g transform="translate(0 99.060381)" style="fill: #006c66;"><path d="M5.500-62L22.094-62L37.922-17.029L53.656-62L70.328-62L70.328 0L57.594 0L57.594-16.951L58.859-46.213L42.234 0L33.516 0L16.922-46.166L18.203-16.951L18.203 0L5.500 0L5.500-62ZM129.563 0L125.281-12.719L103.031-12.719L98.797 0L85.297 0L108.234-62L120-62L143.063 0L129.563 0ZM114.109-46.339L106.453-23L121.859-23L114.109-46.339ZM168-62L179.547-40.631L191.109-62L205.703-62L187.766-31.259L206.172 0L191.391 0L179.547-21.715L167.703 0L152.938 0L171.344-31.259L153.391-62L168-62ZM237.484-31L237.484-21.141L213.656-21.141L213.656-31L237.484-31ZM281.328-21.703L270.203-21.703L270.203 0L257.500 0L257.500-62L281.531-62Q288.484-62 293.750-59.436Q299.016-56.872 301.852-52.155Q304.688-47.437 304.688-41.410L304.688-41.410Q304.688-32.259 298.484-26.981Q292.281-21.703 281.328-21.703L281.328-21.703ZM270.203-51.719L270.203-32L281.531-32Q286.578-32 289.219-34.415Q291.859-36.830 291.859-41.325L291.859-41.325Q291.859-45.932 289.195-48.786Q286.531-51.639 281.828-51.719L281.828-51.719L270.203-51.719ZM334.203-62L334.203-10.203L361.156-10.203L361.156 0L321.500 0L321.500-62L334.203-62ZM417.563 0L413.281-12.719L391.031-12.719L386.797 0L373.297 0L396.234-62L408-62L431.063 0L417.563 0ZM402.109-46.339L394.453-23L409.859-23L402.109-46.339ZM495.609-62L495.609 0L482.906 0L458.203-40.804L458.203 0L445.500 0L445.500-62L458.203-62L482.953-21.117L482.953-62L495.609-62ZM551.172-20.375L563.875-20.375Q563.156-10.422 556.531-4.711Q549.906 1 539.078 1L539.078 1Q527.219 1 520.430-6.937Q513.641-14.874 513.641-28.728L513.641-28.728L513.641-32.475Q513.641-41.321 516.773-48.054Q519.906-54.786 525.727-58.393Q531.547-62 539.234-62L539.234-62Q549.906-62 556.422-56.281Q562.938-50.563 563.953-40.234L563.953-40.234L551.266-40.234Q550.797-46.203 547.938-48.891Q545.078-51.578 539.234-51.578L539.234-51.578Q532.891-51.578 529.742-47.065Q526.594-42.551 526.500-33.059L526.500-33.059L526.500-28.437Q526.500-18.526 529.531-13.943Q532.563-9.359 539.078-9.359L539.078-9.359Q544.953-9.359 547.852-12.047Q550.750-14.734 551.172-20.375L551.172-20.375ZM615.625 0L599.797-24.875L593.203-17.721L593.203 0L580.500 0L580.500-62L593.203-62L593.203-33.901L598.781-41.606L614.484-62L630.094-62L608.219-34.451L630.734 0L615.625 0ZM660.484-31L660.484-21.141L636.656-21.141L636.656-31L660.484-31ZM693-62L693 0L680.313 0L680.313-62L693-62ZM763.609-62L763.609 0L750.906 0L726.203-40.804L726.203 0L713.500 0L713.500-62L726.203-62L750.953-21.117L750.953-62L763.609-62ZM815.453-15.963L815.453-15.963Q815.453-19.529 812.914-21.436Q810.375-23.344 803.773-25.468Q797.172-27.593 793.313-29.660L793.313-29.660Q782.828-35.289 782.828-44.851L782.828-44.851Q782.828-49.826 785.641-53.721Q788.453-57.615 793.719-59.808Q798.984-62 805.547-62L805.547-62Q812.156-62 817.313-59.613Q822.469-57.227 825.328-52.897Q828.188-48.567 828.188-43.047L828.188-43.047L815.500-43.047Q815.500-47.237 812.828-49.556Q810.156-51.875 805.344-51.875L805.344-51.875Q800.688-51.875 798.102-49.930Q795.516-47.985 795.516-44.820L795.516-44.820Q795.516-41.841 798.547-39.834Q801.578-37.827 807.453-36.052L807.453-36.052Q818.281-32.814 823.234-28.003Q828.188-23.193 828.188-16.032L828.188-16.032Q828.188-8.061 822.141-3.530Q816.094 1 805.844 1L805.844 1Q798.734 1 792.898-1.589Q787.063-4.177 783.992-8.686Q780.922-13.195 780.922-19.119L780.922-19.119L793.656-19.119Q793.656-9.031 805.844-9.031L805.844-9.031Q810.375-9.031 812.914-10.853Q815.453-12.675 815.453-15.963ZM891.875-62L891.875-51.719L873.016-51.719L873.016 0L860.313 0L860.313-51.719L841.688-51.719L841.688-62L891.875-62ZM921-62L921 0L908.313 0L908.313-62L921-62ZM986.875-62L986.875-51.719L968.016-51.719L968.016 0L955.313 0L955.313-51.719L936.688-51.719L936.688-62L986.875-62ZM1036.391-62L1049.141-62L1049.141-21.067Q1049.141-10.869 1042.813-4.934Q1036.484 1 1025.516 1L1025.516 1Q1014.734 1 1008.383-4.761Q1002.031-10.522 1001.906-20.594L1001.906-20.594L1001.906-62L1014.609-62L1014.609-20.918Q1014.609-14.792 1017.508-11.998Q1020.406-9.203 1025.516-9.203L1025.516-9.203Q1036.234-9.203 1036.391-20.571L1036.391-20.571L1036.391-62ZM1114.875-62L1114.875-51.719L1096.016-51.719L1096.016 0L1083.313 0L1083.313-51.719L1064.688-51.719L1064.688-62L1114.875-62Z"/></g><g transform="translate(0 179.070381)" style="fill: #006c66;"><path d="M38.078-45.188L10.703-5.359L39.172-5.359L39.172 0L2.938 0L2.938-4.922L30.219-44.594L3.391-44.594L3.391-50L38.078-50L38.078-45.188ZM79.219-50L85.813-50L85.813-15.789Q85.781-8.682 81.391-4.157Q77 0.368 69.469 0.921L69.469 0.921L67.734 1Q59.563 1 54.711-3.462Q49.859-7.924 49.781-15.726L49.781-15.726L49.781-50L56.281-50L56.281-15.888Q56.281-10.432 59.258-7.403Q62.234-4.375 67.734-4.375L67.734-4.375Q73.297-4.375 76.258-7.380Q79.219-10.385 79.219-15.856L79.219-15.856L79.219-50ZM127.828 0L117.031-20.625L105.344-20.625L105.344 0L98.750 0L98.750-50L115.219-50Q123.625-50 128.156-46.206Q132.688-42.412 132.688-35.165L132.688-35.165Q132.688-30.551 130.172-27.136Q127.656-23.722 123.188-22.019L123.188-22.019L134.875-0.415L134.875 0L127.828 0ZM105.344-44.594L105.344-26L115.422-26Q120.313-26 123.203-28.496Q126.094-30.991 126.094-35.166L126.094-35.166Q126.094-39.710 123.336-42.137Q120.578-44.563 115.391-44.594L115.391-44.594L105.344-44.594ZM192.906-29L192.906-23.625L171.344-23.625L171.344-5.359L196.391-5.359L196.391 0L164.781 0L164.781-50L196.047-50L196.047-44.594L171.344-44.594L171.344-29L192.906-29ZM236.828 0L226.031-20.625L214.344-20.625L214.344 0L207.750 0L207.750-50L224.219-50Q232.625-50 237.156-46.206Q241.688-42.412 241.688-35.165L241.688-35.165Q241.688-30.551 239.172-27.136Q236.656-23.722 232.188-22.019L232.188-22.019L243.875-0.415L243.875 0L236.828 0ZM214.344-44.594L214.344-26L224.422-26Q229.313-26 232.203-28.496Q235.094-30.991 235.094-35.166L235.094-35.166Q235.094-39.710 232.336-42.137Q229.578-44.563 224.391-44.594L224.391-44.594L214.344-44.594ZM280.219-27L280.219-21.641L259.344-21.641L259.344 0L252.781 0L252.781-50L283.609-50L283.609-44.594L259.344-44.594L259.344-27L280.219-27ZM333.063-26.035L333.063-22.903Q333.063-15.610 330.602-10.172Q328.141-4.734 323.625-1.867Q319.109 1 313.094 1L313.094 1Q307.219 1 302.672-1.883Q298.125-4.765 295.617-10.102Q293.109-15.439 293.031-22.451L293.031-22.451L293.031-26.035Q293.031-33.187 295.531-38.680Q298.031-44.172 302.594-47.086Q307.156-50 313.031-50L313.031-50Q319.016-50 323.578-47.117Q328.141-44.235 330.602-38.765Q333.063-33.296 333.063-26.035L333.063-26.035ZM326.531-22.421L326.531-26.096Q326.531-34.924 322.977-39.642Q319.422-44.359 313.031-44.359L313.031-44.359Q306.813-44.359 303.242-39.642Q299.672-34.924 299.563-26.547L299.563-26.547L299.563-22.904Q299.563-14.356 303.172-9.467Q306.781-4.578 313.094-4.578L313.094-4.578Q319.453-4.578 322.938-9.195Q326.422-13.811 326.531-22.421L326.531-22.421ZM374.828 0L364.031-20.625L352.344-20.625L352.344 0L345.750 0L345.750-50L362.219-50Q370.625-50 375.156-46.206Q379.688-42.412 379.688-35.165L379.688-35.165Q379.688-30.551 377.172-27.136Q374.656-23.722 370.188-22.019L370.188-22.019L381.875-0.415L381.875 0L374.828 0ZM352.344-44.594L352.344-26L362.422-26Q367.313-26 370.203-28.496Q373.094-30.991 373.094-35.166L373.094-35.166Q373.094-39.710 370.336-42.137Q367.578-44.563 362.391-44.594L362.391-44.594L352.344-44.594ZM406.438-21.812L406.438-21.812Q398-24.227 394.156-27.757Q390.313-31.286 390.313-36.459L390.313-36.459Q390.313-42.334 395.008-46.167Q399.703-50 407.219-50L407.219-50Q412.359-50 416.375-48.016Q420.391-46.031 422.594-42.547Q424.797-39.063 424.797-34.922L424.797-34.922L418.203-34.922Q418.203-39.438 415.328-42.016Q412.453-44.594 407.219-44.594L407.219-44.594Q402.375-44.594 399.656-42.470Q396.938-40.347 396.938-36.567L396.938-36.567Q396.938-33.533 399.516-31.441Q402.094-29.349 408.297-27.614Q414.500-25.880 418.008-23.783Q421.516-21.686 423.203-18.887Q424.891-16.088 424.891-12.300L424.891-12.300Q424.891-6.266 420.180-2.633Q415.469 1 407.563 1L407.563 1Q402.438 1 397.992-0.969Q393.547-2.938 391.141-6.352Q388.734-9.766 388.734-14.109L388.734-14.109L395.328-14.109Q395.328-9.594 398.664-6.984Q402-4.375 407.563-4.375L407.563-4.375Q412.766-4.375 415.531-6.484Q418.297-8.594 418.297-12.236Q418.297-15.879 415.734-17.872Q413.172-19.864 406.438-21.812ZM465.781-15.484L472.391-15.484Q471.453-7.578 466.555-3.289Q461.656 1 453.516 1L453.516 1Q444.703 1 439.383-5.311Q434.063-11.621 434.063-22.186L434.063-22.186L434.063-26.954Q434.063-33.873 436.547-39.124Q439.031-44.375 443.570-47.187Q448.109-50 454.094-50L454.094-50Q462.031-50 466.813-45.570Q471.594-41.141 472.391-33.313L472.391-33.313L465.781-33.313Q464.938-39.266 462.078-41.930Q459.219-44.594 454.094-44.594L454.094-44.594Q447.813-44.594 444.242-39.962Q440.672-35.329 440.672-26.781L440.672-26.781L440.672-21.985Q440.672-13.904 444.055-9.140Q447.438-4.375 453.516-4.375L453.516-4.375Q458.984-4.375 461.906-6.852Q464.828-9.328 465.781-15.484L465.781-15.484ZM522.031-50L522.031 0L515.422 0L515.422-22.625L490.344-22.625L490.344 0L483.781 0L483.781-50L490.344-50L490.344-28L515.422-28L515.422-50L522.031-50ZM565.219-50L571.813-50L571.813-15.789Q571.781-8.682 567.391-4.157Q563 0.368 555.469 0.921L555.469 0.921L553.734 1Q545.563 1 540.711-3.462Q535.859-7.924 535.781-15.726L535.781-15.726L535.781-50L542.281-50L542.281-15.888Q542.281-10.432 545.258-7.403Q548.234-4.375 553.734-4.375L553.734-4.375Q559.297-4.375 562.258-7.380Q565.219-10.385 565.219-15.856L565.219-15.856L565.219-50ZM623.031-50L623.031 0L616.422 0L591.375-38.524L591.375 0L584.781 0L584.781-50L591.375-50L616.500-11.303L616.500-50L623.031-50ZM674.516-24L674.516-6.086Q671.984-2.528 667.461-0.764Q662.938 1 656.922 1L656.922 1Q650.828 1 646.117-1.852Q641.406-4.703 638.820-9.946Q636.234-15.190 636.172-22.108L636.172-22.108L636.172-26.440Q636.172-37.659 641.414-43.830Q646.656-50 656.172-50L656.172-50Q663.953-50 668.703-46.016Q673.453-42.031 674.516-34.719L674.516-34.719L667.953-34.719Q666.109-44.594 656.203-44.594L656.203-44.594Q649.609-44.594 646.203-39.977Q642.797-35.360 642.766-26.610L642.766-26.610L642.766-22.561Q642.766-14.216 646.594-9.295Q650.422-4.375 656.953-4.375L656.953-4.375Q660.641-4.375 663.414-5.169Q666.188-5.964 667.984-7.840L667.984-7.840L667.984-18.672L656.469-18.672L656.469-24L674.516-24ZM711.094-50L725.250-8.760L739.469-50L746.641-50L728.188 0L722.375 0L703.953-50L711.094-50ZM794.063-26.035L794.063-22.903Q794.063-15.610 791.602-10.172Q789.141-4.734 784.625-1.867Q780.109 1 774.094 1L774.094 1Q768.219 1 763.672-1.883Q759.125-4.765 756.617-10.102Q754.109-15.439 754.031-22.451L754.031-22.451L754.031-26.035Q754.031-33.187 756.531-38.680Q759.031-44.172 763.594-47.086Q768.156-50 774.031-50L774.031-50Q780.016-50 784.578-47.117Q789.141-44.235 791.602-38.765Q794.063-33.296 794.063-26.035L794.063-26.035ZM787.531-22.421L787.531-26.096Q787.531-34.924 783.977-39.642Q780.422-44.359 774.031-44.359L774.031-44.359Q767.813-44.359 764.242-39.642Q760.672-34.924 760.563-26.547L760.563-26.547L760.563-22.904Q760.563-14.356 764.172-9.467Q767.781-4.578 774.094-4.578L774.094-4.578Q780.453-4.578 783.938-9.195Q787.422-13.811 787.531-22.421L787.531-22.421ZM844.031-50L844.031 0L837.422 0L812.375-38.524L812.375 0L805.781 0L805.781-50L812.375-50L837.500-11.303L837.500-50L844.031-50Z"/></g><g transform="translate(0 259.080381)" style="fill: #006c66;"><path d="M36.063 0L18.422-23.250L12.344-16.892L12.344 0L5.781 0L5.781-50L12.344-50L12.344-25.275L34.453-50L42.391-50L22.797-27.912L43.922 0L36.063 0ZM81.828 0L71.031-20.625L59.344-20.625L59.344 0L52.750 0L52.750-50L69.219-50Q77.625-50 82.156-46.206Q86.688-42.412 86.688-35.165L86.688-35.165Q86.688-30.551 84.172-27.136Q81.656-23.722 77.188-22.019L77.188-22.019L88.875-0.415L88.875 0L81.828 0ZM59.344-44.594L59.344-26L69.422-26Q74.313-26 77.203-28.496Q80.094-30.991 80.094-35.166L80.094-35.166Q80.094-39.710 77.336-42.137Q74.578-44.563 69.391-44.594L69.391-44.594L59.344-44.594ZM105.813-50L105.813 0L99.250 0L99.250-50L105.813-50ZM119.781-50L128.250-50L144.516-9.199L160.797-50L169.297-50L169.297 0L162.734 0L162.734-19.466L163.359-40.487L147.016 0L142 0L125.688-40.392L126.344-19.466L126.344 0L119.781 0L119.781-50ZM190.813-50L190.813 0L184.250 0L184.250-50L190.813-50ZM244.031-50L244.031 0L237.422 0L212.375-38.524L212.375 0L205.781 0L205.781-50L212.375-50L237.500-11.303L237.500-50L244.031-50ZM291.016 0L286.250-12.594L265.406-12.594L260.719 0L253.953 0L272.969-50L278.703-50L297.734 0L291.016 0ZM275.828-41.868L267.391-18L284.313-18L275.828-41.868ZM314.375-50L314.375-5.359L337.953-5.359L337.953 0L307.781 0L307.781-50L314.375-50ZM354.813-50L354.813 0L348.250 0L348.250-50L354.813-50ZM403.156-50L403.156-44.594L387.172-44.594L387.172 0L380.641 0L380.641-44.594L364.672-44.594L364.672-50L403.156-50ZM443.016 0L438.250-12.594L417.406-12.594L412.719 0L405.953 0L424.969-50L430.703-50L449.734 0L443.016 0ZM427.828-41.868L419.391-18L436.313-18L427.828-41.868ZM417.453-57.594L417.453-57.594Q417.453-59.141 418.391-60.180Q419.328-61.219 421.180-61.219Q423.031-61.219 423.984-60.180Q424.938-59.141 424.938-57.602Q424.938-56.063 423.984-55.031Q423.031-54 421.180-54Q419.328-54 418.391-55.031Q417.453-56.063 417.453-57.594ZM432.156-57.563L432.156-57.563Q432.156-59.081 433.094-60.134Q434.031-61.188 435.875-61.188Q437.719-61.188 438.680-60.134Q439.641-59.081 439.641-57.555Q439.641-56.029 438.680-55.015Q437.719-54 435.875-54Q434.031-54 433.094-55.015Q432.156-56.029 432.156-57.563ZM489.156-50L489.156-44.594L473.172-44.594L473.172 0L466.641 0L466.641-44.594L450.672-44.594L450.672-50L489.156-50ZM490.578 10L490.578 10L486.984 7.534Q490.203 3.025 490.344-1.751L490.344-1.751L490.344-7.484L496.531-7.484L496.531-2.505Q496.531 0.967 494.836 4.439Q493.141 7.911 490.578 10ZM543.438-21.812L543.438-21.812Q535-24.227 531.156-27.757Q527.313-31.286 527.313-36.459L527.313-36.459Q527.313-42.334 532.008-46.167Q536.703-50 544.219-50L544.219-50Q549.359-50 553.375-48.016Q557.391-46.031 559.594-42.547Q561.797-39.063 561.797-34.922L561.797-34.922L555.203-34.922Q555.203-39.438 552.328-42.016Q549.453-44.594 544.219-44.594L544.219-44.594Q539.375-44.594 536.656-42.470Q533.938-40.347 533.938-36.567L533.938-36.567Q533.938-33.533 536.516-31.441Q539.094-29.349 545.297-27.614Q551.500-25.880 555.008-23.783Q558.516-21.686 560.203-18.887Q561.891-16.088 561.891-12.300L561.891-12.300Q561.891-6.266 557.180-2.633Q552.469 1 544.563 1L544.563 1Q539.438 1 534.992-0.969Q530.547-2.938 528.141-6.352Q525.734-9.766 525.734-14.109L525.734-14.109L532.328-14.109Q532.328-9.594 535.664-6.984Q539-4.375 544.563-4.375L544.563-4.375Q549.766-4.375 552.531-6.484Q555.297-8.594 555.297-12.236Q555.297-15.879 552.734-17.872Q550.172-19.864 543.438-21.812ZM579.813-50L579.813 0L573.250 0L573.250-50L579.813-50ZM624.781-15.484L631.391-15.484Q630.453-7.578 625.555-3.289Q620.656 1 612.516 1L612.516 1Q603.703 1 598.383-5.311Q593.063-11.621 593.063-22.186L593.063-22.186L593.063-26.954Q593.063-33.873 595.547-39.124Q598.031-44.375 602.570-47.187Q607.109-50 613.094-50L613.094-50Q621.031-50 625.813-45.570Q630.594-41.141 631.391-33.313L631.391-33.313L624.781-33.313Q623.938-39.266 621.078-41.930Q618.219-44.594 613.094-44.594L613.094-44.594Q606.813-44.594 603.242-39.962Q599.672-35.329 599.672-26.781L599.672-26.781L599.672-21.985Q599.672-13.904 603.055-9.140Q606.438-4.375 612.516-4.375L612.516-4.375Q617.984-4.375 620.906-6.852Q623.828-9.328 624.781-15.484L624.781-15.484ZM682.031-50L682.031 0L675.422 0L675.422-22.625L650.344-22.625L650.344 0L643.781 0L643.781-50L650.344-50L650.344-28L675.422-28L675.422-50L682.031-50ZM723.906-29L723.906-23.625L702.344-23.625L702.344-5.359L727.391-5.359L727.391 0L695.781 0L695.781-50L727.047-50L727.047-44.594L702.344-44.594L702.344-29L723.906-29ZM767.828 0L757.031-20.625L745.344-20.625L745.344 0L738.750 0L738.750-50L755.219-50Q763.625-50 768.156-46.206Q772.688-42.412 772.688-35.165L772.688-35.165Q772.688-30.551 770.172-27.136Q767.656-23.722 763.188-22.019L763.188-22.019L774.875-0.415L774.875 0L767.828 0ZM745.344-44.594L745.344-26L755.422-26Q760.313-26 763.203-28.496Q766.094-30.991 766.094-35.166L766.094-35.166Q766.094-39.710 763.336-42.137Q760.578-44.563 755.391-44.594L755.391-44.594L745.344-44.594ZM823.031-50L823.031 0L816.422 0L816.422-22.625L791.344-22.625L791.344 0L784.781 0L784.781-50L791.344-50L791.344-28L816.422-28L816.422-50L823.031-50ZM864.906-29L864.906-23.625L843.344-23.625L843.344-5.359L868.391-5.359L868.391 0L836.781 0L836.781-50L868.047-50L868.047-44.594L843.344-44.594L843.344-29L864.906-29ZM886.813-50L886.813 0L880.250 0L880.250-50L886.813-50ZM935.156-50L935.156-44.594L919.172-44.594L919.172 0L912.641 0L912.641-44.594L896.672-44.594L896.672-50L935.156-50ZM992.219-50L998.813-50L998.813-15.789Q998.781-8.682 994.391-4.157Q990 0.368 982.469 0.921L982.469 0.921L980.734 1Q972.563 1 967.711-3.462Q962.859-7.924 962.781-15.726L962.781-15.726L962.781-50L969.281-50L969.281-15.888Q969.281-10.432 972.258-7.403Q975.234-4.375 980.734-4.375L980.734-4.375Q986.297-4.375 989.258-7.380Q992.219-10.385 992.219-15.856L992.219-15.856L992.219-50ZM1050.031-50L1050.031 0L1043.422 0L1018.375-38.524L1018.375 0L1011.781 0L1011.781-50L1018.375-50L1043.500-11.303L1043.500-50L1050.031-50ZM1078.547 0L1064.781 0L1064.781-50L1078.828-50Q1085.313-50 1090.305-47.119Q1095.297-44.239 1098.016-38.909Q1100.734-33.579 1100.766-26.688L1100.766-26.688L1100.766-23.485Q1100.766-16.421 1098.047-11.099Q1095.328-5.777 1090.289-2.920Q1085.250-0.063 1078.547 0L1078.547 0ZM1079-44.594L1071.344-44.594L1071.344-5.359L1078.250-5.359Q1085.828-5.359 1090.055-10.106Q1094.281-14.854 1094.281-23.625L1094.281-23.625L1094.281-26.548Q1094.281-35.068 1090.297-39.799Q1086.313-44.531 1079-44.594L1079-44.594ZM1162.828 0L1152.031-20.625L1140.344-20.625L1140.344 0L1133.750 0L1133.750-50L1150.219-50Q1158.625-50 1163.156-46.206Q1167.688-42.412 1167.688-35.165L1167.688-35.165Q1167.688-30.551 1165.172-27.136Q1162.656-23.722 1158.188-22.019L1158.188-22.019L1169.875-0.415L1169.875 0L1162.828 0ZM1140.344-44.594L1140.344-26L1150.422-26Q1155.313-26 1158.203-28.496Q1161.094-30.991 1161.094-35.166L1161.094-35.166Q1161.094-39.710 1158.336-42.137Q1155.578-44.563 1150.391-44.594L1150.391-44.594L1140.344-44.594ZM1207.906-29L1207.906-23.625L1186.344-23.625L1186.344-5.359L1211.391-5.359L1211.391 0L1179.781 0L1179.781-50L1211.047-50L1211.047-44.594L1186.344-44.594L1186.344-29L1207.906-29ZM1251.781-15.484L1258.391-15.484Q1257.453-7.578 1252.555-3.289Q1247.656 1 1239.516 1L1239.516 1Q1230.703 1 1225.383-5.311Q1220.063-11.621 1220.063-22.186L1220.063-22.186L1220.063-26.954Q1220.063-33.873 1222.547-39.124Q1225.031-44.375 1229.570-47.187Q1234.109-50 1240.094-50L1240.094-50Q1248.031-50 1252.813-45.570Q1257.594-41.141 1258.391-33.313L1258.391-33.313L1251.781-33.313Q1250.938-39.266 1248.078-41.930Q1245.219-44.594 1240.094-44.594L1240.094-44.594Q1233.813-44.594 1230.242-39.962Q1226.672-35.329 1226.672-26.781L1226.672-26.781L1226.672-21.985Q1226.672-13.904 1230.055-9.140Q1233.438-4.375 1239.516-4.375L1239.516-4.375Q1244.984-4.375 1247.906-6.852Q1250.828-9.328 1251.781-15.484L1251.781-15.484ZM1309.031-50L1309.031 0L1302.422 0L1302.422-22.625L1277.344-22.625L1277.344 0L1270.781 0L1270.781-50L1277.344-50L1277.344-28L1302.422-28L1302.422-50L1309.031-50ZM1356.156-50L1356.156-44.594L1340.172-44.594L1340.172 0L1333.641 0L1333.641-44.594L1317.672-44.594L1317.672-50L1356.156-50Z"/></g></g></svg>