<?xml version="1.0" encoding="utf-8"?>
<!-- Generator: Adobe Illustrator 24.2.0, SVG Export Plug-In . SVG Version: 6.00 Build 0)  -->
<svg version="1.1" id="Layer_1" xmlns="http://www.w3.org/2000/svg" xmlns:xlink="http://www.w3.org/1999/xlink" x="0px" y="0px"
	 viewBox="0 0 122.88 82.43" style="enable-background:new 0 0 122.88 82.43;" xml:space="preserve">
<style type="text/css">
	.st0{fill-rule:evenodd;clip-rule:evenodd;}
</style>
<g>
	<path class="st0" d="M5.53,0h85.4c1.52,0,2.91,0.62,3.91,1.62c1,1,1.63,2.39,1.63,3.91v5.66c-0.76-0.46-1.51-0.93-2.25-1.39
		c-0.66,0.52-1.33,1.01-2,1.49V7.22L79.39,18.15c-3.13,1.16-6.29,1.98-9.46,2.5L89.19,4.24H6.96l0,0L48.98,38.5l7.85-6.69
		c0.08,1.8,0.19,3.55,0.34,5.27l-6.79,5.78l0,0c-0.76,0.65-1.9,0.69-2.71,0.03l-10.2-8.32l0,0L6.61,65.51h57.7
		c0.7,1.47,1.45,2.89,2.25,4.25l-61.02,0c-1.52,0-2.91-0.62-3.91-1.63c-1-1-1.62-2.39-1.62-3.91V5.53c0-1.52,0.62-2.91,1.62-3.91
		C2.63,0.62,4.01,0,5.53,0L5.53,0L5.53,0z M122.75,29.08c1.44,29.04-9.29,46.2-28.3,53.35c-18.36-6.7-29.21-23.11-28.4-53.79
		c9.65,0.5,19.12-1.58,28.3-8.71C102.49,25.09,112.87,29.98,122.75,29.08L122.75,29.08z M113.95,36.1
		c0.98,19.8-6.33,31.5-19.29,36.38c-0.08-0.03-0.16-0.06-0.25-0.09v-42.4l0.17-0.12C100.12,33.38,107.2,36.71,113.95,36.1
		L113.95,36.1z M119.5,31.61c1.27,25.7-8.22,40.89-25.04,47.23C78.2,72.91,68.6,58.38,69.3,31.22c8.56,0.45,16.94-1.39,25.05-7.71
		C101.56,28.08,110.76,32.41,119.5,31.61L119.5,31.61z M4.24,61.89l29.93-30L4.24,7.49V61.89L4.24,61.89L4.24,61.89z"/>
</g>
</svg>
