<?xml version="1.0" encoding="UTF-8"?>
<svg xmlns="http://www.w3.org/2000/svg" viewBox="0 0 16 16">
    <path style="line-height:normal;text-indent:0;text-align:start;text-decoration-line:none;text-decoration-style:solid;text-decoration-color:#000;text-transform:none;block-progression:tb;isolation:auto;mix-blend-mode:normal" d="M 7.5 1 C 3.9160714 1 1 3.9160714 1 7.5 C 1 11.083929 3.9160714 14 7.5 14 C 11.083929 14 14 11.083929 14 7.5 C 14 3.9160714 11.083929 1 7.5 1 z M 7.5 2 C 10.543488 2 13 4.4565116 13 7.5 C 13 10.543488 10.543488 13 7.5 13 C 4.4565116 13 2 10.543488 2 7.5 C 2 4.4565116 4.4565116 2 7.5 2 z M 8.5 4 C 8.1100408 4 7.7610188 4.1767538 7.5410156 4.4121094 C 7.3210124 4.647465 7.2048756 4.919867 7.1308594 5.1699219 C 6.9828269 5.6700316 7 6.1367186 7 6.1367188 L 7 8.9707031 C 6.0150213 8.8581576 5.575928 8.4130812 5.3125 7.9667969 C 5.0090743 7.4527509 5.0000657 6.9449571 5 6.9414062 L 5 6.9394531 L 5 6.9375 C 5.0014235 6.1381946 5.4164615 5.4695695 5.9003906 5.1777344 A 0.50005 0.50005 0 0 0 5.65625 4.2460938 A 0.50005 0.50005 0 0 0 5.3847656 4.3222656 C 4.5595252 4.8199297 4 5.8045356 4 6.9414062 A 0.50005 0.50005 0 0 0 4 6.9453125 C 4 6.9453125 4.00236 7.7109478 4.453125 8.4746094 C 4.8554921 9.1562727 5.6693021 9.8325102 7 9.9707031 L 7 12 L 8 12 L 8 9.8789062 C 9.279012 9.7206026 10.153404 9.1412044 10.546875 8.4746094 C 10.997641 7.7109478 11 6.9453125 11 6.9453125 A 0.50005 0.50005 0 0 0 11 6.9414062 C 11 5.344799 9.8848208 4 8.5 4 z M 8.5 5 C 9.1907479 5 9.9989917 5.8151529 10 6.9394531 L 10 6.9414062 C 9.9999343 6.9449562 9.99093 7.4527509 9.6875 7.9667969 C 9.4343013 8.3957544 8.9061613 8.7578323 8 8.890625 L 8 6.125 A 0.50005 0.50005 0 0 0 8 6.1132812 C 8 6.1132812 7.9973798 5.7674684 8.0898438 5.4550781 C 8.1360773 5.2988832 8.2066751 5.165035 8.2714844 5.0957031 C 8.3362937 5.0263712 8.3709592 5 8.5 5 z" font-weight="400" font-family="sans-serif" white-space="normal" overflow="visible"/>
</svg>