<svg xmlns="http://www.w3.org/2000/svg" width="660" height="241" viewBox="0 0 660 241"><g fill="none"><g fill="#000" transform="translate(250.527 34.15)"><path d="M24.3697084 39.3806458 21.1100659 28.3048392 7.60583255 28.3048392 4.34619003 39.3806458 0 39.3806458 11.7968015 2.15362907 17.229539 2.15362907 29.0263405 39.3806458 24.3697084 39.3806458ZM15.6773283 10.6143147 14.4355597 5.99939526 13.9698965 5.99939526 12.7281279 10.6143147 8.53715898 24.7667343 20.0235183 24.7667343 15.6773283 10.6143147ZM38.1843838 39.3806458C35.2351834 39.3806458 33.9934149 38.1500006 33.9934149 35.2272183L33.9934149 0 38.0291627 0 38.0291627 35.8425409 41.5992474 35.8425409 41.5992474 39.3806458 38.1843838 39.3806458ZM45.4797742 25.6897182C45.4797742 15.3830648 50.2916275 11.2296373 56.8109125 11.2296373 63.3301976 11.2296373 67.6763876 15.3830648 67.6763876 25.6897182L67.6763876 26.7665327 49.8259643 26.7665327 49.8259643 28.4586698C49.8259643 33.8427425 52.4647225 36.4578635 56.8109125 36.4578635 60.5362183 36.4578635 62.8645343 34.7657264 64.1063029 31.6891134L66.9002822 33.6889118C65.1928504 37.3808474 61.9332079 39.9959684 56.8109125 39.9959684 50.2916275 39.9959684 45.4797742 35.8425409 45.4797742 25.6897182ZM49.8259643 22.9207665 49.8259643 23.5360891 63.3301976 23.5360891 63.3301976 22.9207665C63.3301976 17.5366938 61.1571025 14.7677422 56.8109125 14.7677422 52.3095014 14.6139115 49.8259643 17.5366938 49.8259643 22.9207665Z"/><polygon points="70.315 39.381 79.473 25.382 70.781 11.845 75.437 11.845 81.646 21.844 82.112 21.844 88.476 11.845 92.977 11.845 84.285 25.228 93.288 39.381 88.631 39.381 82.267 28.613 81.802 28.613 75.127 39.381 70.315 39.381"/><path d="M115.639699 39.3806458C113.000941 39.3806458 111.603951 37.99617 111.603951 35.381049L111.603951 34.919557 111.138288 34.919557C110.206961 38.1500006 107.568203 39.9959684 104.15334 39.9959684 98.7206021 39.9959684 96.0818438 37.2270167 96.0818438 31.9967747 96.0818438 26.9203633 99.3414864 23.6899197 106.636877 23.6899197L111.603951 23.6899197 111.603951 20.6133068C111.603951 16.61371 109.896519 14.7677422 105.860771 14.7677422 102.75635 14.7677422 100.738476 16.152218 99.3414864 18.767339L96.8579492 16.4598793C98.2549389 13.537097 101.669802 11.2296373 105.860771 11.2296373 112.069614 11.2296373 115.484478 14.3062502 115.484478 20.1518148L115.484478 35.6887103 118.278457 35.6887103 118.278457 39.3806458 115.639699 39.3806458ZM111.603951 30.9199602 111.603951 26.7665327 106.481656 26.7665327C102.135466 26.7665327 100.272813 28.3048392 100.272813 30.9199602L100.272813 32.4582667C100.272813 35.2272183 102.135466 36.4578635 105.084666 36.4578635 108.809972 36.4578635 111.603951 33.8427425 111.603951 30.9199602ZM124.021637 39.3806458 124.021637 11.8449599 128.057385 11.8449599 128.057385 16.3060487 128.523048 16.3060487C129.609595 12.9217744 131.78269 11.2296373 135.663217 11.2296373 140.630292 11.2296373 143.579492 14.4600809 143.579492 21.5362907L143.579492 39.3806458 139.543744 39.3806458 139.543744 21.6901213C139.543744 17.3828632 137.681091 14.9215728 133.955786 14.9215728 130.696143 14.9215728 128.057385 17.0752019 128.057385 20.6133068L128.057385 39.3806458 124.021637 39.3806458ZM167.483537 34.919557 167.017874 34.919557C165.931326 38.4576619 163.447789 39.9959684 160.032926 39.9959684 153.35842 39.9959684 149.943556 34.4580651 149.943556 25.5358875 149.943556 16.61371 153.513641 11.0758066 160.032926 11.0758066 163.447789 11.0758066 165.931326 12.6141131 167.017874 16.152218L167.483537 16.152218 167.483537 0 171.519285 0 171.519285 39.3806458 167.483537 39.3806458 167.483537 34.919557ZM167.483537 31.2276215 167.483537 20.1518148C167.483537 17.0752019 164.689558 14.9215728 161.119473 14.9215728 156.618062 14.9215728 154.134525 17.8443551 154.134525 22.9207665L154.134525 28.4586698C154.134525 33.5350812 156.618062 36.4578635 161.119473 36.4578635 164.689558 36.4578635 167.483537 34.3042344 167.483537 31.2276215ZM177.883349 25.6897182C177.883349 15.3830648 182.695202 11.2296373 189.214487 11.2296373 195.733772 11.2296373 200.079962 15.3830648 200.079962 25.6897182L200.079962 26.7665327 182.229539 26.7665327 182.229539 28.4586698C182.229539 33.8427425 184.868297 36.4578635 189.214487 36.4578635 192.939793 36.4578635 195.268109 34.7657264 196.509878 31.6891134L199.303857 33.6889118C197.596425 37.3808474 194.336783 39.9959684 189.214487 39.9959684 182.695202 39.9959684 177.883349 35.8425409 177.883349 25.6897182ZM182.229539 22.9207665 182.229539 23.5360891 195.733772 23.5360891 195.733772 22.9207665C195.733772 17.5366938 193.560677 14.7677422 189.214487 14.7677422 184.868297 14.6139115 182.229539 17.5366938 182.229539 22.9207665ZM206.444026 39.3806458 206.444026 11.8449599 210.479774 11.8449599 210.479774 16.9213712 210.945437 16.9213712C211.876764 13.8447583 214.20508 11.8449599 217.775165 11.8449599L219.327375 11.8449599 219.327375 15.9983874 216.688617 15.9983874C212.80809 15.9983874 210.479774 17.6905245 210.479774 21.0747987L210.479774 39.3806458 206.444026 39.3806458Z"/><polygon points="241.214 39.381 232.521 11.845 236.557 11.845 240.748 25.69 243.387 35.689 243.852 35.689 246.491 25.69 250.682 11.845 254.718 11.845 246.025 39.381"/><path d="M257.356538 25.6897182C257.356538 15.3830648 262.168391 11.2296373 268.687676 11.2296373 275.206961 11.2296373 280.018815 15.3830648 280.018815 25.6897182 280.018815 35.9963716 275.206961 40.1497991 268.687676 40.1497991 262.168391 39.9959684 257.356538 35.8425409 257.356538 25.6897182ZM275.672625 28.4586698 275.672625 22.9207665C275.672625 17.5366938 273.189087 14.9215728 268.687676 14.9215728 264.341486 14.9215728 261.702728 17.5366938 261.702728 22.9207665L261.702728 28.4586698C261.702728 33.8427425 264.186265 36.4578635 268.687676 36.4578635 273.189087 36.4578635 275.672625 33.8427425 275.672625 28.4586698ZM286.382879 39.3806458 286.382879 11.8449599 290.418627 11.8449599 290.418627 16.3060487 290.88429 16.3060487C291.970837 12.9217744 294.143932 11.2296373 298.024459 11.2296373 302.991533 11.2296373 305.940734 14.4600809 305.940734 21.5362907L305.940734 39.3806458 301.904986 39.3806458 301.904986 21.6901213C301.904986 17.3828632 300.042333 14.9215728 296.317027 14.9215728 293.057385 14.9215728 290.418627 17.0752019 290.418627 20.6133068L290.418627 39.3806458 286.382879 39.3806458Z"/></g><g fill="#000" transform="translate(252.7 91.068)"><polygon points="30.113 33.381 11.486 33.381 11.486 56.61 0 56.61 0 .923 11.486 .923 11.486 23.536 30.113 23.536 30.113 .923 41.599 .923 41.599 56.61 30.113 56.61"/><path d="M66.9002822,0.922983886 L66.9002822,37.0731861 C66.9002822,44.4570572 69.0733772,47.3798395 75.5926623,47.3798395 C82.1119473,47.3798395 84.2850423,44.3032265 84.2850423,37.0731861 L84.2850423,0.922983886 L95.7714017,0.922983886 L95.7714017,35.5348796 C95.7714017,51.2256057 90.4938852,57.5326622 75.5926623,57.5326622 C60.6914393,57.5326622 55.4139229,51.2256057 55.4139229,35.5348796 L55.4139229,0.922983886 L66.9002822,0.922983886 Z"/><polygon points="147.305 27.536 147.926 18.152 146.684 18.152 143.269 27.074 133.956 47.226 124.643 27.074 121.228 18.152 119.986 18.152 120.607 27.536 120.607 56.61 109.897 56.61 109.897 .923 122.004 .923 129.61 17.537 133.801 29.382 134.577 29.382 138.768 17.537 146.218 .923 158.17 .923 158.17 56.61 147.305 56.61"/><path d="M172.29539.922983886 197.285983.922983886C206.288805.922983886 210.634995 6.61471785 210.634995 15.2292341 210.634995 24.6129036 205.823142 26.9203633 201.16651 27.2280246L201.16651 28.4586698C206.444026 28.4586698 212.652869 31.6891134 212.652869 40.7651216 212.652869 49.5334686 207.685795 56.6096784 199.614299 56.6096784L172.450611 56.6096784 172.450611.922983886 172.29539.922983886ZM183.78175 23.8437504 194.336783 23.8437504C196.975541 23.8437504 198.527752 22.4592746 198.527752 19.0750003L198.527752 15.3830648C198.527752 11.9987905 196.975541 10.6143147 194.336783 10.6143147L183.78175 10.6143147 183.78175 23.8437504ZM183.78175 46.9183475 196.199436 46.9183475C198.838194 46.9183475 200.390405 45.5338717 200.390405 41.9957668L200.390405 37.99617C200.390405 34.4580651 198.682973 33.0735893 196.199436 33.0735893L183.78175 33.0735893 183.78175 46.9183475ZM221.966134 28.7663311C221.966134 7.99919368 230.813735 0 244.317968 0 257.822201 0 266.669802 7.99919368 266.669802 28.7663311 266.669802 49.5334686 257.822201 57.5326622 244.317968 57.5326622 230.813735 57.5326622 221.966134 49.5334686 221.966134 28.7663311ZM254.252117 35.9963716 254.252117 21.5362907C254.252117 13.9985889 250.526811 9.9989921 244.162747 9.9989921 237.798683 9.9989921 234.073377 13.8447583 234.073377 21.5362907L234.073377 35.9963716C234.073377 43.5340733 237.798683 47.5336701 244.162747 47.5336701 250.526811 47.5336701 254.252117 43.5340733 254.252117 35.9963716Z"/><polygon points="278.777 56.61 278.777 .923 290.263 .923 290.263 46.611 309.356 46.611 309.356 56.61"/><path d="M320.531515,0.922983886 L340.244591,0.922983886 C353.904045,0.922983886 362.130762,8.76834692 362.130762,28.7663311 C362.130762,48.7643153 353.904045,56.6096784 340.244591,56.6096784 L320.531515,56.6096784 L320.531515,0.922983886 Z M340.244591,46.6106863 C346.608655,46.6106863 350.023518,43.0725814 350.023518,35.381049 L350.023518,21.9977826 C350.023518,14.4600809 346.608655,10.7681453 340.244591,10.7681453 L332.017874,10.7681453 L332.017874,46.4568556 L340.244591,46.4568556 L340.244591,46.6106863 Z"/><polygon points="393.951 10.922 393.951 56.61 382.465 56.61 382.465 10.922 368.96 10.922 368.96 .923 407.3 .923 407.3 10.922"/></g><g fill="#000" transform="translate(251.148 165.368)"><path d="M0,39.9959684 L3.88052681,36.7655248 C6.67450611,40.9189523 10.2445908,43.226412 15.056444,43.226412 C21.2652869,43.226412 24.5249294,40.3036297 24.5249294,34.4580651 C24.5249294,29.689315 22.5070555,27.5356859 16.7638758,26.1512101 L13.3490122,25.2282262 C5.12229539,23.2284278 1.39698965,19.5364923 1.39698965,12.4602825 C1.39698965,4.30725814 6.98494826,0 15.5221072,0 C22.0413923,0 26.2323612,2.30745972 29.4920038,7.38387109 L25.611477,10.1528227 C23.1279398,6.4608872 20.3339605,4.46108878 15.3668862,4.46108878 C9.62370649,4.46108878 6.67450611,6.7685485 6.67450611,12.3064518 C6.67450611,16.7675406 9.0028222,18.767339 14.4355597,20.1518148 L17.8504233,21.0747987 C26.5428034,23.2284278 29.8024459,26.7665327 29.8024459,34.4580651 C29.8024459,43.0725814 24.2144873,47.8413314 15.056444,47.8413314 C8.22671684,47.9951621 3.25964252,44.9185491 0,39.9959684 Z"/><polygon points="51.689 5.538 51.689 47.226 46.411 47.226 46.411 5.538 33.217 5.538 33.217 .923 64.882 .923 64.882 5.538"/><polygon points="69.694 47.072 69.694 42.765 75.593 42.765 75.593 5.23 69.694 5.23 69.694 .923 86.769 .923 86.769 5.23 80.87 5.23 80.87 42.765 86.769 42.765 86.769 47.072"/><polygon points="95.927 47.072 95.927 .769 121.228 .769 121.228 5.384 101.359 5.384 101.359 21.229 119.365 21.229 119.365 25.844 101.359 25.844 101.359 46.918 95.927 46.918"/><polygon points="144.2 5.538 144.2 47.226 138.923 47.226 138.923 5.538 125.574 5.538 125.574 .923 157.239 .923 157.239 5.538"/><path d="M169.34619,0.769153239 L169.34619,30.7661295 C169.34619,39.0729845 171.829727,43.226412 179.125118,43.226412 C186.420508,43.226412 188.904045,39.0729845 188.904045,30.7661295 L188.904045,0.769153239 L194.181562,0.769153239 L194.181562,29.689315 C194.181562,41.9957668 190.301035,47.8413314 178.969897,47.8413314 C167.638758,47.8413314 163.758231,41.9957668 163.758231,29.689315 L163.758231,0.769153239 L169.34619,0.769153239 Z"/><polygon points="214.671 17.075 210.635 7.538 210.014 7.538 210.48 17.075 210.48 47.072 205.202 47.072 205.202 .769 211.722 .769 227.244 30.766 231.279 40.304 231.9 40.304 231.435 30.766 231.435 .769 236.712 .769 236.712 47.072 230.193 47.072"/><path d="M275.05174,40.7651216 L274.430856,40.7651216 C273.49953,44.9185491 269.774224,47.9951621 262.789276,47.9951621 C252.544685,47.9951621 245.714958,40.611291 245.714958,23.997581 C245.714958,7.53770174 252.234243,0 263.565381,0 C271.792098,0 276.44873,3.84576619 279.087488,9.84516145 L274.741298,12.4602825 C272.878645,7.69153239 269.308561,4.76875008 263.565381,4.76875008 C255.804327,4.76875008 251.458137,10.3066534 251.458137,18.767339 L251.458137,29.0739924 C251.458137,37.6885087 255.804327,43.0725814 263.565381,43.0725814 C269.619003,43.0725814 274.741298,39.3806458 274.741298,32.9197586 L274.741298,28.1510085 L265.428034,28.1510085 L265.428034,23.5360891 L279.863594,23.5360891 L279.863594,47.2260088 L274.896519,47.2260088 L274.896519,40.7651216 L275.05174,40.7651216 Z"/></g><ellipse cx="112.38" cy="129.218" fill="#76EB9F" rx="112.38" ry="111.373"/><g fill="#000" transform="translate(30.889)"><polygon points="75.903 100.451 79.939 99.221 90.183 99.99 96.858 103.836 90.183 103.682 87.855 106.605 81.957 106.451 80.56 103.374 78.076 103.374 77.766 108.297 71.402 106.451"/><polygon points="75.127 180.29 75.903 183.674 82.112 186.289 74.661 187.673 72.799 185.827"/><polygon points="140.475 86.914 134.577 91.683 128.833 104.605 136.129 104.297 137.215 111.066 135.198 117.065 139.233 112.143 139.389 101.221 135.198 98.759 135.818 94.144"/><polyline points="139.544 227.516 167.639 154.6 161.275 144.755 150.72 142.447 156.152 151.369 146.684 179.367 112.225 228.746 109.897 234.438"/><polygon points="36.632 175.828 41.289 181.674 33.683 193.673 39.892 224.131 53.241 183.981"/><polygon points="124.953 124.757 123.711 136.755 111.914 152.6 112.225 171.521 117.502 153.061 125.419 144.447 135.198 127.526 129.92 129.525"/><polygon points="120.607 129.833 120.296 129.833 120.296 129.987"/><polygon points="143.269 64.301 139.544 57.225 143.424 47.534 125.574 20.459 111.449 13.999 90.804 11.076 79.784 0 62.554 0 39.581 10.307 34.304 20.306 20.024 19.536 4.191 27.382 17.385 29.228 7.916 42.15 15.522 38.919 22.973 40.15 11.176 51.687 8.537 70.301 6.519 84.761 0 93.837 8.848 94.144 .466 100.759 11.642 110.604 27.474 115.988 16.453 104.605 19.247 97.836 17.695 90.914 17.695 61.994 29.182 48.61 54.483 44.919 56.966 38.458 63.641 35.843 68.452 43.534 68.452 56.917 86.613 41.688 89.252 30.151 97.789 40.15 101.515 51.226 96.082 62.301 104.929 57.379 102.912 71.07 112.38 83.222 118.278 92.76 119.055 101.682 124.953 108.451 128.678 93.837 134.266 85.991 139.389 82.146 144.356 83.53 144.511 66.763"/><polygon points="62.554 98.298 69.694 98.913 80.87 94.76 90.649 94.76 102.756 97.375 92.201 88.145 82.112 87.837 68.142 95.529"/><path d="M59.4496707,162.137503 L65.6585136,166.752422 L74.1956726,165.983269 L79.6284102,161.214519 L68.9181562,162.291333 L63.7958608,158.753228 L70.625588,158.753228 L75.2822201,157.061091 L85.0611477,156.75343 L92.3565381,153.984478 L94.0639699,158.753228 L94.8400753,151.523188 L86.6133584,147.36976 L90.9595484,152.138511 L85.2163688,154.29214 L72.1777987,152.907664 L67.6763876,155.522785 L63.4854186,154.599801 L55.2587018,156.907261 L49.6707432,154.44597 L55.5691439,160.753027 L59.4496707,162.137503 Z M59.915334,148.138914 L66.1241769,146.600607 L71.8673565,141.062704 L75.9031044,141.370365 L77.7657573,139.216736 L71.8673565,138.139922 L67.9868297,142.293349 L60.2257761,142.908672 L56.0348071,139.370567 L55.8795861,103.681857 L49.8259643,99.3745984 L41.9096896,96.7594774 L29.6472248,97.3748 L23.4383819,81.6840739 L23.593603,65.6856866 L34.303857,44.6108878 L15.2116651,58.1479848 L11.1759172,100.143752 L17.6952023,108.604437 L23.7488241,112.142542 L26.3875823,117.065123 L27.1636877,133.525002 L32.5964252,146.446777 L40.3574788,168.290729 L63.6406397,190.288511 L81.335842,190.442342 L92.046096,183.058471 L83.664158,185.827422 L65.6585136,185.519761 L54.4825964,175.6746 L43.6171214,165.060285 L40.5126999,150.600204 L33.8381938,138.755244 L31.8203198,127.833268 L31.8203198,120.910889 L41.4440263,122.295365 L37.8739417,119.064921 L36.321731,114.757663 L38.9604892,111.834881 L41.1335842,113.98851 L45.6349953,113.527018 L47.6528692,109.835082 L52.1542803,113.373187 L49.360301,145.831454 L52.9303857,148.754236 L57.2765757,149.369559 L59.915334,148.138914 Z M30.2681091,108.758268 L29.0263405,103.835687 L39.2709313,102.912703 L43.6171214,105.066332 L30.2681091,108.758268 Z"/></g></g></svg>