<?xml version="1.0" encoding="utf-8"?><svg version="1.1" id="Layer_1" xmlns="http://www.w3.org/2000/svg" xmlns:xlink="http://www.w3.org/1999/xlink" x="0px" y="0px" viewBox="0 0 122.88 73.27" style="enable-background:new 0 0 122.88 73.27" xml:space="preserve"><style type="text/css"><![CDATA[
	.st0{fill-rule:evenodd;clip-rule:evenodd;}
]]></style><g><path class="st0" d="M104.27,58.88l-0.54-19.99l-32.85,9.49c-2.96,0.65-5.88,0.96-8.74,0.97c-3.07,0.01-6.09-0.32-9.06-0.97 L21.7,38.79v20.27c0.9,10.53,31.11,13.75,40.38,14.19c7.43,0.36,36.78-3.52,40.64-9.57C103.55,62.36,104.07,60.76,104.27,58.88 L104.27,58.88z M117.58,24.5v24.43h0.77c0.53,0,0.96,0.43,0.96,0.96v6.57c0,0.52-0.43,0.96-0.96,0.96h-0.77v2.3 c0.98,0.18,1.73,1.05,1.73,2.08v0c0,1.16-0.96,2.12-2.12,2.12h-3.79c-1.16,0-2.12-0.95-2.12-2.12v0c0-1.03,0.75-1.9,1.73-2.08v-2.3 h-0.77c-0.52,0-0.96-0.43-0.96-0.96v-6.57c0-0.53,0.43-0.96,0.96-0.96h0.77v-23L73.03,38.35c-7.24,1.72-14.48,1.84-21.72,0 L7.18,25.18l-3.99-1.19c-4.97-2.03-3.73-6.8,0.9-7.9L54,1.19c5.15-1.47,10.29-1.7,15.44,0l49.01,14.72 c5.33,1.3,6.38,6.23,0.18,8.26L117.58,24.5L117.58,24.5z"/></g></svg>