<?xml version="1.0" encoding="utf-8"?>
<!-- Generator: Adobe Illustrator 28.1.0, SVG Export Plug-In . SVG Version: 6.00 Build 0)  -->
<svg version="1.1" id="Ebene_1" xmlns="http://www.w3.org/2000/svg" xmlns:xlink="http://www.w3.org/1999/xlink" x="0px" y="0px"
	 viewBox="0 0 485.4 101.6" style="enable-background:new 0 0 485.4 101.6;" xml:space="preserve">
<style type="text/css">
	.st0{fill:#B10D7B;}
	.st1{fill:#333F48;}
	.st2{fill:#009ED4;}
</style>
<g>
	<path class="st0" d="M28.8,23.9l-1.4,10.2h6.5v5.5h-7.2l-2.1,14.9h-6l2.1-14.9h-8.1l-2.1,14.9H4.6l2-14.9H0.3v-5.5h7.1l1.4-10.2
		H2.4v-5.5h7.2l2-14.8h6l-2.1,14.8h8.1l2.1-14.8h5.9l-2,14.8H36v5.5H28.8z M14.7,23.9l-1.4,10.2h8.1l1.4-10.2H14.7z"/>
	<path class="st1" d="M66.9,54.5c-0.4-0.8-0.4-1.3-0.6-2.8c-2.4,2.4-5.3,3.6-8.9,3.6c-9.3,0-14.9-7.3-14.9-18.6
		c0-11.4,6.3-19.2,15.1-19.2c3.1,0,5.6,1,7.8,3.3c-0.1-0.6-0.2-3.2-0.2-6V1.4l7.8,1.2v39.2c0,7.2,0.4,10.9,1.2,12.7H66.9z
		 M65.2,26.7c-1.8-1.9-4-3-6.6-3c-5,0-7.3,4-7.3,12.8c0,8.1,1.6,12.1,7.6,12.1c3,0,5.3-1.7,6.4-3.5V26.7z"/>
	<path class="st1" d="M89.3,12.7c-2.9,0-5.1-2.4-5.1-5.3c0-3,2.3-5.3,5.3-5.3c2.8,0,5.2,2.3,5.2,5.3C94.6,10.3,92.2,12.7,89.3,12.7z
		 M85.3,54.5V18.6l8-1.4v37.3H85.3z"/>
	<path class="st1" d="M133.1,23.9c-1.5,0-2.6-0.3-2.8-0.4c0.2,0.2,2.4,2.6,2.4,6.3c0,6.3-5.3,11.2-13.8,11.2
		c-2.6,0.9-4.9,2.3-4.9,3.5c0,1.4,0.5,1.5,9.1,1.5c5.8,0,12.1,3,12.1,10.4c0,7.8-6.5,12-16.2,12c-9.4,0-16.3-3.1-16.3-9.9
		c0-1.5,0.6-3.5,0.7-3.9h7.5c-0.1,0.3-0.6,1.6-0.6,2.6c0,3.4,2.9,5.3,8,5.3c5.6,0,8.6-2.3,8.6-5.7c0-4-3.3-5-10.1-5
		c-9.8,0-12-1.9-12-5.5c0-3.6,3-5,6.9-6.3c-5.5-1.6-8.3-5.1-8.3-10.3c0-7.4,5.8-12.3,14.5-12.3c5.2,0,8.1,1.9,11.1,1.9
		c2.4,0,4.6-0.9,6.6-2.5l3.7,5C137.4,23.3,135.6,23.9,133.1,23.9z M118,23.2c-4,0-6.3,2.2-6.3,6.3c0,4.2,2.4,6.1,6.3,6.1
		c4.1,0,6.3-2.2,6.3-6.2C124.3,25.3,122.2,23.2,118,23.2z"/>
	<path class="st1" d="M148.8,12.7c-2.9,0-5.1-2.4-5.1-5.3c0-3,2.3-5.3,5.3-5.3c2.8,0,5.2,2.3,5.2,5.3
		C154.1,10.3,151.8,12.7,148.8,12.7z M144.8,54.5V18.6l8-1.4v37.3H144.8z"/>
	<path class="st1" d="M174.6,55.4c-7.1,0-9.5-4.2-9.5-9.4V23.5h-4v-5.5h4c0-3.1,0-6.3,0.4-9l8.1-1.9c-0.4,3-0.6,7.3-0.6,10.9h8.7
		l-2.1,5.5h-6.7V44c0,4.5,1,5.8,4.5,5.8c1.1,0,2-0.2,3.4-0.7l1,4.8C179.3,54.9,177,55.4,174.6,55.4z"/>
	<path class="st1" d="M213.2,56c-2.2-0.9-4.1-2.6-5-4.9c-3,3.3-6.1,4.5-10,4.5c-8.4,0-12.1-4.6-12.1-10.9c0-8.4,6.3-12.7,18-12.7
		h2.4V30c0-4.2-0.7-6.4-5-6.4c-4.7,0-9.7,3.3-10.9,4.2l-3.5-5.7c5.5-3.5,10-5,15.5-5c5.7,0,9.5,2.1,11.1,6c0.6,1.6,0.6,3.5,0.6,8.9
		l-0.1,10.4c-0.1,4.9,0.4,6.5,3.2,8.4L213.2,56z M205,37.3c-7.9,0-10.3,2.3-10.3,6.9c0,3.5,1.9,5.6,5,5.6c2.5,0,5-1.5,6.6-3.8
		l0.1-8.6C206.3,37.4,205.5,37.3,205,37.3z"/>
	<path class="st1" d="M234.1,55.3c-8,0-8-7.2-8-10.3V14c0-5-0.2-7.6-0.7-10.7l8.1-1.8c0.6,2.2,0.6,5.3,0.6,10v30.9
		c0,4.9,0.2,5.7,0.8,6.6c0.4,0.6,1.7,1,2.6,0.6l1.3,4.9C237.4,55,235.9,55.3,234.1,55.3z"/>
	<path class="st2" d="M246.4,69.4V0h7.2v69.4H246.4z"/>
	<path class="st1" d="M288.1,54.5c-0.4-0.8-0.4-1.3-0.6-2.8c-2.4,2.4-5.3,3.6-8.9,3.6c-9.3,0-14.9-7.3-14.9-18.6
		c0-11.4,6.3-19.2,15.1-19.2c3.1,0,5.6,1,7.8,3.3c-0.1-0.6-0.2-3.2-0.2-6V1.4l7.8,1.2v39.2c0,7.2,0.4,10.9,1.2,12.7H288.1z
		 M286.4,26.7c-1.8-1.9-4-3-6.6-3c-5,0-7.3,4-7.3,12.8c0,8.1,1.6,12.1,7.6,12.1c3,0,5.3-1.7,6.4-3.5V26.7z"/>
	<path class="st1" d="M313,38.5V39c0,5,1.9,10.4,9,10.4c3.4,0,6.3-1.2,9.1-3.6l3.1,4.8c-3.8,3.2-8.2,4.8-13.1,4.8
		c-10.3,0-16.8-7.4-16.8-19.1c0-6.4,1.4-10.7,4.5-14.3c3-3.4,6.6-4.9,11.2-4.9c3.6,0,6.9,0.9,10,3.7c3.2,2.9,4.8,7.3,4.8,15.8v1.7
		H313z M320,23.2c-4.5,0-6.9,3.5-6.9,9.4h13.5C326.6,26.7,324,23.2,320,23.2z"/>
	<path class="st1" d="M364.1,54.5V30.3c0-5-1.2-6.3-4.2-6.3c-2.3,0-5.6,1.7-8,4.1v26.4h-7.8V27.7c0-3.8-0.4-6-1.4-8.6l7.2-2
		c0.9,1.7,1.3,3.2,1.3,5.2c3.9-3.3,7.3-5,11.2-5c5.6,0,9.5,3.4,9.5,10.1v27.2H364.1z"/>
	<path class="st1" d="M383.4,54.5V12.1c0-3.5-0.2-6-0.8-8.8l7.9-1.9c0.4,2.3,0.7,5.8,0.7,9.6v43.5H383.4z M405.6,54.5l-13.8-20.6
		l10.8-15.8h9.6l-12.5,15.4l15.4,21H405.6z"/>
	<path class="st1" d="M426.5,38.5V39c0,5,1.9,10.4,9,10.4c3.4,0,6.3-1.2,9.1-3.6l3.1,4.8c-3.8,3.2-8.2,4.8-13.1,4.8
		c-10.3,0-16.8-7.4-16.8-19.1c0-6.4,1.4-10.7,4.5-14.3c3-3.4,6.6-4.9,11.2-4.9c3.6,0,6.9,0.9,10,3.7c3.2,2.9,4.8,7.3,4.8,15.8v1.7
		H426.5z M433.5,23.2c-4.5,0-6.9,3.5-6.9,9.4H440C440,26.7,437.5,23.2,433.5,23.2z"/>
	<path class="st1" d="M477.6,54.5V30.3c0-5-1.2-6.3-4.2-6.3c-2.3,0-5.6,1.7-8,4.1v26.4h-7.8V27.7c0-3.8-0.4-6-1.4-8.6l7.2-2
		c0.9,1.7,1.3,3.2,1.3,5.2c3.9-3.3,7.3-5,11.2-5c5.6,0,9.5,3.4,9.5,10.1v27.2H477.6z"/>
</g>
<g>
	<path class="st1" d="M11.4,95.8l-3.9-7.4l-3.7,7.4H0l5.7-10l-5-8.7h3.8l3,5.8l2.9-5.8h3.7l-4.8,8.4l5.8,10.2H11.4z"/>
	<path class="st1" d="M26.2,95.8l-3.9-7.4l-3.7,7.4h-3.8l5.7-10l-5-8.7h3.8l3,5.8l2.9-5.8h3.7l-4.8,8.4L30,95.8H26.2z"/>
	<path class="st1" d="M38.9,95.9H36l-6.3-18.8h3.4l3.4,10.6c0.5,1.5,0.8,2.8,1,3.8h0.1c0.2-0.9,0.5-2,1.1-3.9l3.4-10.4h3.2
		L38.9,95.9z"/>
	<path class="st1" d="M47.5,95.8V77.1h3.2v18.7H47.5z"/>
	<path class="st1" d="M56.8,96.2c-1.2,0-2.1-1-2.1-2.2c0-1.2,0.9-2.1,2.1-2.1c1.2,0,2.2,0.9,2.2,2.1C58.9,95.2,58,96.2,56.8,96.2z"
		/>
	<path class="st1" d="M80.3,93.2c-1.6,2-3.2,2.6-6.7,2.6h-4.6V77.1H73c3.5,0,5.6,0.6,7.3,2.6c1.4,1.6,2,3.8,2,6.7
		C82.3,89.4,81.6,91.6,80.3,93.2z M77.7,81.2c-0.9-1.2-1.8-1.6-3.5-1.6h-2v13.7h2.1c3.3,0,4.6-2.2,4.6-6.4
		C78.9,84.5,78.6,82.5,77.7,81.2z"/>
	<path class="st1" d="M88.6,89.8V90c0,1.9,0.7,3.9,3.4,3.9c1.3,0,2.4-0.5,3.4-1.4l1.2,1.8c-1.4,1.2-3.1,1.8-4.9,1.8
		c-3.9,0-6.3-2.8-6.3-7.2c0-2.4,0.5-4,1.7-5.3c1.1-1.3,2.5-1.8,4.2-1.8c1.3,0,2.6,0.4,3.8,1.4c1.2,1.1,1.8,2.8,1.8,5.9v0.6H88.6z
		 M91.2,84.1c-1.7,0-2.6,1.3-2.6,3.5h5C93.6,85.4,92.7,84.1,91.2,84.1z"/>
	<path class="st1" d="M109.3,96.3c-0.6-0.4-0.9-0.9-1.2-1.7c-1,1.1-2.3,1.7-3.9,1.7c-1.5,0-2.7-0.5-3.4-1.3
		c-0.5-0.6-0.8-1.5-0.8-3.2v-9.3l2.9-0.5V91c0,1.7,0.2,2.9,2,2.9c1,0,2.2-0.8,2.7-1.8v-9.8l2.9-0.5v10.3c0,1.8,0.7,2.6,0.8,2.7
		L109.3,96.3z"/>
	<path class="st1" d="M118.7,96.2c-2.6,0-3.6-1.6-3.6-3.5v-8.4h-1.5v-2.1h1.5c0-1.2,0-2.3,0.1-3.4l3.1-0.7c-0.1,1.1-0.2,2.8-0.2,4.1
		h3.3l-0.8,2.1H118v7.7c0,1.7,0.4,2.2,1.7,2.2c0.4,0,0.8-0.1,1.3-0.3l0.4,1.8C120.5,96,119.6,96.2,118.7,96.2z"/>
	<path class="st1" d="M128.2,96.2c-1.7,0-3.5-0.5-5.2-1.5l1.1-2.1c1.2,0.7,2.9,1.4,4.4,1.4c1.3,0,2.2-0.8,2.2-1.9
		c0-1.1-0.7-1.6-2.2-1.9l-1.6-0.4c-2.1-0.4-3.3-1.8-3.3-3.8c0-2.6,2.1-4.3,5.1-4.3c1.9,0,3.3,0.6,4.5,1.2l-1,2.1
		c-1.3-0.7-2.3-1-3.3-1c-1.3,0-2.1,0.7-2.1,1.8c0,0.8,0.5,1.3,1.8,1.6l1.7,0.4c2.8,0.7,3.5,2.2,3.5,3.8
		C133.7,94.3,131.5,96.2,128.2,96.2z"/>
	<path class="st1" d="M142.2,96.2c-3.7,0-5.8-2.6-5.8-7c0-5,3-7.3,6-7.3c1.5,0,2.6,0.4,3.8,1.5l-1.5,2c-0.8-0.7-1.5-1.1-2.3-1.1
		c-0.9,0-1.7,0.5-2.2,1.4c-0.4,0.8-0.6,2.1-0.6,3.8c0,1.9,0.3,3,0.9,3.7c0.4,0.5,1.1,0.8,1.8,0.8c0.9,0,1.9-0.5,2.8-1.4l1.4,1.8
		C145.4,95.6,144.1,96.2,142.2,96.2z"/>
	<path class="st1" d="M157.7,95.8v-9.3c0-1.7-0.6-2.2-1.7-2.2c-1.1,0-2.3,0.7-3.3,1.7v9.8h-3V79.6c0-1.2-0.1-2.3-0.3-3l3-0.6
		c0.2,0.8,0.3,1.9,0.3,3.2v2.9c0,0.8-0.1,1.4-0.1,1.5c1.3-1.2,2.7-1.8,4.2-1.8c1.6,0,2.9,0.8,3.3,1.7c0.4,0.7,0.5,1.3,0.5,2.7v9.6
		H157.7z"/>
	<path class="st1" d="M167.7,89.8V90c0,1.9,0.7,3.9,3.4,3.9c1.3,0,2.4-0.5,3.4-1.4l1.2,1.8c-1.4,1.2-3.1,1.8-4.9,1.8
		c-3.9,0-6.3-2.8-6.3-7.2c0-2.4,0.5-4,1.7-5.3c1.1-1.3,2.5-1.8,4.2-1.8c1.3,0,2.6,0.4,3.8,1.4c1.2,1.1,1.8,2.8,1.8,5.9v0.6H167.7z
		 M170.3,84.1c-1.7,0-2.6,1.3-2.6,3.5h5C172.7,85.4,171.8,84.1,170.3,84.1z"/>
	<path class="st1" d="M185.7,84.8c-0.3-0.1-0.5-0.2-0.8-0.2c-1.2,0-2.3,0.9-2.6,2v9.2h-3v-9.6c0-1.7-0.2-2.8-0.5-3.7l2.7-0.7
		c0.3,0.6,0.5,1.4,0.5,2.2c1.1-1.5,2.2-2.2,3.5-2.2c0.4,0,0.7,0.1,1.1,0.2L185.7,84.8z"/>
	<path class="st1" d="M194.9,95.8V77.1h3.2v18.7H194.9z M204.3,95.8l-6.3-10l6.1-8.7h3.8l-6.5,8.7l6.9,10H204.3z"/>
	<path class="st1" d="M215.1,96.2c-3.7,0-6-2.8-6-7.2c0-4.4,2.3-7.2,6-7.2c3.9,0,6.1,2.9,6.1,7.2C221.1,93.4,218.8,96.2,215.1,96.2z
		 M215,84.1c-1.9,0-2.7,1.4-2.7,4.8c0,4,1,5.1,2.8,5.1c1.8,0,2.7-1.4,2.7-4.9C217.9,85.2,216.8,84.1,215,84.1z"/>
	<path class="st1" d="M232.2,95.8v-9.1c0-1.9-0.4-2.4-1.6-2.4c-0.9,0-2.1,0.6-3,1.5v9.9h-2.9v-10c0-1.4-0.1-2.3-0.5-3.2l2.7-0.8
		c0.3,0.6,0.5,1.2,0.5,1.9c1.5-1.2,2.7-1.9,4.2-1.9c2.1,0,3.6,1.3,3.6,3.8v10.2H232.2z"/>
	<path class="st1" d="M250.1,84.4c-0.6,0-1-0.1-1.1-0.1c0.1,0.1,0.9,1,0.9,2.4c0,2.4-2,4.2-5.2,4.2c-1,0.4-1.8,0.9-1.8,1.3
		c0,0.5,0.2,0.6,3.4,0.6c2.2,0,4.5,1.1,4.5,3.9c0,2.9-2.4,4.5-6.1,4.5c-3.5,0-6.1-1.2-6.1-3.7c0-0.6,0.2-1.3,0.3-1.5h2.8
		c-0.1,0.1-0.2,0.6-0.2,1c0,1.3,1.1,2,3,2c2.1,0,3.2-0.9,3.2-2.1c0-1.5-1.2-1.9-3.8-1.9c-3.7,0-4.5-0.7-4.5-2.1s1.1-1.9,2.6-2.3
		c-2.1-0.6-3.1-1.9-3.1-3.9c0-2.8,2.2-4.6,5.5-4.6c1.9,0,3,0.7,4.2,0.7c0.9,0,1.7-0.3,2.5-0.9l1.4,1.9
		C251.7,84.1,251,84.4,250.1,84.4z M244.5,84.1c-1.5,0-2.3,0.8-2.3,2.4c0,1.6,0.9,2.3,2.3,2.3c1.5,0,2.3-0.8,2.3-2.3
		C246.8,84.9,246,84.1,244.5,84.1z"/>
	<path class="st1" d="M260.9,84.8c-0.3-0.1-0.5-0.2-0.8-0.2c-1.2,0-2.3,0.9-2.6,2v9.2h-3v-9.6c0-1.7-0.2-2.8-0.5-3.7l2.7-0.7
		c0.3,0.6,0.5,1.4,0.5,2.2c1.1-1.5,2.2-2.2,3.5-2.2c0.4,0,0.7,0.1,1.1,0.2L260.9,84.8z"/>
	<path class="st1" d="M266,89.8V90c0,1.9,0.7,3.9,3.4,3.9c1.3,0,2.4-0.5,3.4-1.4l1.2,1.8c-1.4,1.2-3.1,1.8-4.9,1.8
		c-3.9,0-6.3-2.8-6.3-7.2c0-2.4,0.5-4,1.7-5.3c1.1-1.3,2.5-1.8,4.2-1.8c1.3,0,2.6,0.4,3.8,1.4c1.2,1.1,1.8,2.8,1.8,5.9v0.6H266z
		 M268.6,84.1c-1.7,0-2.6,1.3-2.6,3.5h5C271.1,85.4,270.1,84.1,268.6,84.1z"/>
	<path class="st1" d="M281.6,96.2c-1.7,0-3.5-0.5-5.2-1.5l1.1-2.1c1.2,0.7,2.9,1.4,4.4,1.4c1.3,0,2.2-0.8,2.2-1.9
		c0-1.1-0.7-1.6-2.2-1.9l-1.6-0.4c-2.1-0.4-3.3-1.8-3.3-3.8c0-2.6,2.1-4.3,5.1-4.3c1.9,0,3.3,0.6,4.5,1.2l-1,2.1
		c-1.3-0.7-2.3-1-3.3-1c-1.3,0-2.1,0.7-2.1,1.8c0,0.8,0.5,1.3,1.8,1.6l1.7,0.4c2.8,0.7,3.5,2.2,3.5,3.8
		C287.1,94.3,284.9,96.2,281.6,96.2z"/>
	<path class="st1" d="M294.4,96.2c-1.7,0-3.5-0.5-5.2-1.5l1.1-2.1c1.2,0.7,2.9,1.4,4.4,1.4c1.3,0,2.2-0.8,2.2-1.9
		c0-1.1-0.7-1.6-2.2-1.9l-1.6-0.4c-2.1-0.4-3.3-1.8-3.3-3.8c0-2.6,2.1-4.3,5.1-4.3c1.9,0,3.3,0.6,4.5,1.2l-1,2.1
		c-1.3-0.7-2.3-1-3.3-1c-1.3,0-2.1,0.7-2.1,1.8c0,0.8,0.5,1.3,1.8,1.6l1.7,0.4c2.8,0.7,3.5,2.2,3.5,3.8
		C299.9,94.3,297.7,96.2,294.4,96.2z"/>
	<path class="st1" d="M315.5,78.7c-0.7-0.3-1.1-0.5-1.6-0.5c-1,0-1.7,0.7-1.7,1.9v2.1h3.6l-0.8,2.1h-2.8v11.6h-2.9V84.2H308v-2.1
		h1.3c0-0.2-0.1-0.9-0.1-2c0-2.8,1.7-4.2,4.2-4.2c1.2,0,2.1,0.2,3.1,0.8L315.5,78.7z"/>
	<path class="st1" d="M326.7,96.3c-0.6-0.4-0.9-0.9-1.2-1.7c-1,1.1-2.3,1.7-3.9,1.7c-1.5,0-2.7-0.5-3.4-1.3
		c-0.5-0.6-0.8-1.5-0.8-3.2v-9.3l2.9-0.5V91c0,1.7,0.2,2.9,2,2.9c1,0,2.2-0.8,2.7-1.8v-9.8l2.9-0.5v10.3c0,1.8,0.7,2.6,0.8,2.7
		L326.7,96.3z M319.9,80.7c-1,0-1.8-0.9-1.8-1.9c0-1.1,0.8-1.9,1.8-1.9s1.8,0.8,1.8,1.9C321.8,79.8,320.9,80.7,319.9,80.7z
		 M325.6,80.7c-1,0-1.8-0.9-1.8-1.9c0-1.1,0.8-1.9,1.8-1.9c1,0,1.8,0.8,1.8,1.9C327.4,79.8,326.6,80.7,325.6,80.7z"/>
	<path class="st1" d="M338.7,84.8c-0.3-0.1-0.5-0.2-0.8-0.2c-1.2,0-2.3,0.9-2.6,2v9.2h-3v-9.6c0-1.7-0.2-2.8-0.5-3.7l2.7-0.7
		c0.3,0.6,0.5,1.4,0.5,2.2c1.1-1.5,2.2-2.2,3.5-2.2c0.4,0,0.7,0.1,1.1,0.2L338.7,84.8z"/>
	<path class="st1" d="M354,88.7h-3.2v7.1h-3.1V77.1h5c2.7,0,3.7,0.3,4.8,0.9c1.6,1,2.6,2.6,2.6,4.7C360.1,86.4,357.4,88.7,354,88.7z
		 M355.9,80.6c-0.6-0.6-1.4-0.9-2.6-0.9h-2.4v6.6h2.4c2.3,0,3.3-1.1,3.3-3.3C356.7,81.9,356.4,81.1,355.9,80.6z"/>
	<path class="st1" d="M371.1,95.8v-9.3c0-1.7-0.6-2.2-1.7-2.2c-1.1,0-2.3,0.7-3.3,1.7v9.8h-3V79.6c0-1.2-0.1-2.3-0.3-3l3-0.6
		c0.2,0.8,0.3,1.9,0.3,3.2v2.9c0,0.8-0.1,1.4-0.1,1.5c1.3-1.2,2.7-1.8,4.2-1.8c1.6,0,2.9,0.8,3.3,1.7c0.4,0.7,0.5,1.3,0.5,2.7v9.6
		H371.1z"/>
	<path class="st1" d="M380,80.1c-1.1,0-1.9-0.9-1.9-2c0-1.1,0.9-2,2-2c1.1,0,1.9,0.9,1.9,2C382,79.3,381.2,80.1,380,80.1z
		 M378.6,95.8V82.4l3-0.5v14H378.6z"/>
	<path class="st1" d="M389,96.1c-3,0-3-2.7-3-3.9V80.6c0-1.9-0.1-2.9-0.3-4l3-0.7c0.2,0.8,0.2,2,0.2,3.8v11.6c0,1.8,0.1,2.1,0.3,2.5
		c0.2,0.2,0.6,0.4,1,0.2l0.5,1.8C390.3,96,389.7,96.1,389,96.1z"/>
	<path class="st1" d="M398.7,96.2c-3.7,0-6-2.8-6-7.2c0-4.4,2.3-7.2,6-7.2c3.9,0,6.1,2.9,6.1,7.2C404.7,93.4,402.4,96.2,398.7,96.2z
		 M398.7,84.1c-1.9,0-2.7,1.4-2.7,4.8c0,4,1,5.1,2.8,5.1c1.8,0,2.7-1.4,2.7-4.9C401.5,85.2,400.4,84.1,398.7,84.1z"/>
	<path class="st1" d="M412.3,96.2c-1.7,0-3.5-0.5-5.2-1.5l1.1-2.1c1.2,0.7,2.9,1.4,4.4,1.4c1.3,0,2.2-0.8,2.2-1.9
		c0-1.1-0.7-1.6-2.2-1.9l-1.6-0.4c-2.1-0.4-3.3-1.8-3.3-3.8c0-2.6,2.1-4.3,5.1-4.3c1.9,0,3.3,0.6,4.5,1.2l-1,2.1
		c-1.3-0.7-2.3-1-3.3-1c-1.3,0-2.1,0.7-2.1,1.8c0,0.8,0.5,1.3,1.8,1.6l1.7,0.4c2.8,0.7,3.5,2.2,3.5,3.8
		C417.8,94.3,415.6,96.2,412.3,96.2z"/>
	<path class="st1" d="M426.4,96.2c-3.7,0-6-2.8-6-7.2c0-4.4,2.3-7.2,6-7.2c3.9,0,6.1,2.9,6.1,7.2C432.4,93.4,430.1,96.2,426.4,96.2z
		 M426.4,84.1c-1.9,0-2.7,1.4-2.7,4.8c0,4,1,5.1,2.8,5.1c1.8,0,2.7-1.4,2.7-4.9C429.2,85.2,428.1,84.1,426.4,84.1z"/>
	<path class="st1" d="M442.1,96.1c-1.2,0-2.3-0.4-3.2-1.1c0,0.1,0.1,0.7,0.1,1.3v4.6l-2.9,0.7V85.7c0-1.7-0.1-2.4-0.3-3.4l2.7-0.5
		c0.1,0.5,0.2,0.8,0.2,1.7c0.9-1.1,2.2-1.6,3.6-1.6c2.8,0,5.2,2.1,5.2,6.8C447.6,93.2,445.6,96.1,442.1,96.1z M441.8,84.3
		c-1.1,0-2.1,0.5-2.9,1.4v6.8c0.7,0.7,1.6,1.2,2.5,1.2c2,0,2.9-1.5,2.9-4.7C444.4,86,443.8,84.3,441.8,84.3z"/>
	<path class="st1" d="M459.2,95.8v-9.3c0-1.7-0.6-2.2-1.7-2.2c-1.1,0-2.3,0.7-3.3,1.7v9.8h-3V79.6c0-1.2-0.1-2.3-0.3-3l3-0.6
		c0.2,0.8,0.3,1.9,0.3,3.2v2.9c0,0.8-0.1,1.4-0.1,1.5c1.3-1.2,2.7-1.8,4.2-1.8c1.6,0,2.9,0.8,3.3,1.7c0.4,0.7,0.5,1.3,0.5,2.7v9.6
		H459.2z"/>
	<path class="st1" d="M468.2,80.1c-1.1,0-1.9-0.9-1.9-2c0-1.1,0.9-2,2-2c1.1,0,1.9,0.9,1.9,2C470.2,79.3,469.3,80.1,468.2,80.1z
		 M466.7,95.8V82.4l3-0.5v14H466.7z"/>
	<path class="st1" d="M476.8,89.8V90c0,1.9,0.7,3.9,3.4,3.9c1.3,0,2.4-0.5,3.4-1.4l1.2,1.8c-1.4,1.2-3.1,1.8-4.9,1.8
		c-3.9,0-6.3-2.8-6.3-7.2c0-2.4,0.5-4,1.7-5.3c1.1-1.3,2.5-1.8,4.2-1.8c1.3,0,2.6,0.4,3.8,1.4c1.2,1.1,1.8,2.8,1.8,5.9v0.6H476.8z
		 M479.4,84.1c-1.7,0-2.6,1.3-2.6,3.5h5C481.8,85.4,480.9,84.1,479.4,84.1z"/>
</g>
</svg>
